<?xml version="1.0" encoding="utf-8"?>
<svg xmlns="http://www.w3.org/2000/svg" xmlns:xlink="http://www.w3.org/1999/xlink" version= "1.1" width="800px" height="800px" viewBox="-40 240 800 800">
<g id="layer1">
<g style="fill:rgb(0,200,165); fill-opacity:1.0; stroke-linejoin: miter">
<path d="M-95.869415,35.384697L546.5414,192.36697Q594.0032,216.52646,611.7986,280.52454Q620.6963,312.5236,622.17737,354.4822Q627.55334,369.2368,609.93335,502.76746Q592.98157,561.6499,574.47314,581.4362Q571.3213,591.16626,467.2454,670.01965Q453.79984,682.77155,431.59665,722.66785Q419.55545,749.09454,395.98495,877.9021Q385.63455,908.127,377.26852,915.8625Q342.3093,946.5938,290.76364,963.6667Q280.46872,970.06915,204.11536,981.59326Q77.33713,994.03906,-96.88217,958.6415Q-125.057526,952.9373,-143.19485,930.4518Q-163.6705,898.674,-164.75418,887.2841Q-180.9639,846.43506,-180.92325,660.0687Q-182.02829,605.3259,-175.39182,441.44238L-145.13644,203.41539L-126.06424,99.30968Q-99.05411,60.133835,-95.869415,35.384697"/>
</g>
</g>
</svg>