<?xml version="1.0" encoding="utf-8"?>
<svg xmlns="http://www.w3.org/2000/svg" xmlns:xlink="http://www.w3.org/1999/xlink" version= "1.1" width="800px" height="800px" viewBox="-40 240 800 800">
<g id="layer1">
<g style="fill:rgb(255,128,102); fill-opacity:1.0; stroke-linejoin: miter">
<path d="M777.5694,-11.87958L135.15857,145.10266Q87.696785,169.26213,69.90137,233.2602Q61.00367,265.25925,59.522568,307.21786Q54.14665,321.9724,71.766624,455.50305Q88.71847,514.3855,107.226814,534.1718Q110.378685,543.90186,214.45459,622.75525Q227.90015,635.50714,250.1033,675.4034Q262.14453,701.8301,285.71506,830.63763Q296.06543,860.86255,304.43143,868.598Q339.39072,899.3293,390.93637,916.40216Q401.23123,922.8046,477.58463,934.32874Q604.36285,946.77454,778.58215,911.37695Q806.7575,905.6728,824.89484,883.1873Q845.3705,851.40955,846.45416,840.01965Q862.6639,799.1706,862.6232,612.8043Q863.7283,558.0615,857.0918,394.178L826.8364,156.15108L807.7642,52.04538Q780.7541,12.869547,777.5694,-11.87958"/>
</g>
</g>
</svg>