<?xml version="1.0" encoding="utf-8"?>
<svg xmlns="http://www.w3.org/2000/svg" xmlns:xlink="http://www.w3.org/1999/xlink" version= "1.1" width="328px" height="328px" viewBox="196 476 328 328">
<g id="layer1">
<g style="fill:rgb(255,255,255); fill-opacity:1.0; stroke-linejoin: miter">
<path d="M274.36502,565.4488L274.7445,564.6449Q277.34637,557.49896,285.19128,554.7843Q296.05865,551.1826,303.72528,554.1027L302.04108,744.69275Q292.56805,747.1173,282.78613,743.2711Q277.3844,741.7168,272.79047,732.58685L274.36502,565.4488"/>
</g>
<g style="fill:rgb(255,255,255); fill-opacity:1.0; stroke-linejoin: miter">
<path d="M391.6186,554.6914L390.31454,554.733Q377.5799,556.4169,381.95526,566.547Q386.12717,573.8128,389.8639,576.2183Q407.22067,582.49426,419.378,596.50775Q422.44388,601.21484,423.1488,603.5096Q424.30185,606.472,424.88638,609.6934Q427.29816,614.29126,428.7862,620.0264Q430.76202,628.339,430.9846,634.9121Q431.81717,644.9211,429.73694,661.03986Q428.28064,671.1603,425.88492,679.9097Q425.57883,683.287,424.95844,686.302Q424.5808,688.66486,422.93253,693.2765Q420.20285,700.7351,415.1672,706.5568Q413.13815,709.5087,400.14954,717.9963Q398.6513,742.3681,401.37482,743.7814L425.74097,731.17834L430.39395,728.08Q441.0441,719.66956,446.0194,710.2619Q459.8242,685.59296,458.1869,639.6797Q456.1788,602.5755,440.08612,581.42664Q417.63876,555.32196,391.6186,554.6914 Z"/>
</g>
<g style="fill:rgb(255,255,255); fill-opacity:1.0; stroke-linejoin: miter">
<path d="M368.55173,552.8614L366.04297,552.89386Q355.86548,553.06995,343.4073,553.9844L341.91434,743.8535L364.9862,744.05457L366.06027,572.37683Q383.34158,571.22565,396.35867,579.1073L400.73587,555.97095Q393.5189,553.0465,368.55173,552.8614 Z"/>
</g>
<g style="fill:rgb(0,0,0); fill-opacity:1.0; stroke-linejoin: miter">
</g>
<g style="fill:rgb(255,255,255); fill-opacity:1.0; stroke-linejoin: miter">
<path d="M432.6743,680.30273L425.8539,685.63885Q425.65448,692.2105,425.6858,690.83875Q426.3337,668.3338,426.52838,653.5674Q426.7029,641.39453,426.55792,629.49677Q426.39496,617.66754,425.74026,608.9719Q425.42325,604.6534,425.08124,601.1575Q423.89804,590.0406,423.89084,588.6477Q423.8243,587.12256,424.00317,586.3515Q424.34186,585.5199,424.36395,585.665Q425.48364,584.9758,428.1074,588.644Q430.7197,592.32166,433.0765,598.48566Q436.00497,605.7895,437.32724,620.91724Q437.77246,626.39813,438.09158,631.9885L427.6387,685.5594L432.6743,680.30273"/>
</g>
<g style="fill:rgb(255,255,255); fill-opacity:1.0; stroke-linejoin: miter">
<path d="M402.31042,577.9607L402.31046,577.96155Q408.50693,583.88666,413.90897,589.9349Q418.1397,595.0169,418.71515,596.07513Q420.14557,598.1484,421.28174,600.267Q423.51343,604.54443,424.51987,608.86414Q425.04343,611.00397,425.38882,613.0306L426.7672,621.72046Q427.47113,624.66693,428.13086,625.2071Q428.96332,626.4087,430.96628,626.4793Q432.60516,626.54785,436.5912,624.83185L428.68228,596.4811L402.31042,577.9607"/>
</g>
</g>
</svg>