<?xml version="1.0" encoding="UTF-8" standalone="no"?>
<svg
   xmlns:dc="http://purl.org/dc/elements/1.1/"
   xmlns:cc="http://creativecommons.org/ns#"
   xmlns:rdf="http://www.w3.org/1999/02/22-rdf-syntax-ns#"
   xmlns:svg="http://www.w3.org/2000/svg"
   xmlns="http://www.w3.org/2000/svg"
   xmlns:sodipodi="http://sodipodi.sourceforge.net/DTD/sodipodi-0.dtd"
   xmlns:inkscape="http://www.inkscape.org/namespaces/inkscape"
   version="1.1"
   id="svg2"
   xml:space="preserve"
   width="541.37335"
   height="568.08002"
   viewBox="0 0 541.37335 568.08002"
   sodipodi:docname="4040273.eps"><metadata
     id="metadata8"><rdf:RDF><cc:Work
         rdf:about=""><dc:format>image/svg+xml</dc:format><dc:type
           rdf:resource="http://purl.org/dc/dcmitype/StillImage" /></cc:Work></rdf:RDF></metadata><defs
     id="defs6"><clipPath
       clipPathUnits="userSpaceOnUse"
       id="clipPath162"><path
         d="m 3199.65,1346.91 c 0.6,-63.01 -16.7,-174.9 -51.81,-197.5 -31.89,-20.61 -69.39,-12.81 -69.39,-12.81 0,0 -33.8,-54.1 -70.8,-52.5 -35.6,1.61 -63,25.2 -63,25.2 0,0 -1.81,-3.99 -5.1,-9.8 V 560.309 c 0,-70 -40.11,-129.809 -96.8,-154.11 -17.41,-7.5 -36.5,-11.597 -56.4,-11.597 h -1512.4 c -84.8,0 -153.4,74.097 -153.4,165.707 V 2981.7 l -483.105,-86.9 -5.597,-1 c -4.7,-0.59 -9.297,-0.5 -13.903,0.31 -43,7.59 -70.199,76.8 -77.797,178.59 -19.902,-4 -39.8,-7.6 -59.8,-11.09 -24.5,-4.2 -49,-8.31 -73.703,-11.7 l -36.997,-5.01 c -12.3,-1.29 -24.703,-2.89 -37.097,-3.9 11.996,3.2 24.195,5.8 36.297,8.8 l 36.5,7.7 c 24.3,5.2 48.797,9.5 73.3,13.9 20.297,3.4 40.497,6.9 60.899,9.8 -1.899,31.61 -1.996,66.21 -0.098,103 l -42.097,-2.1 c -36.504,-1.7 -73.004,-2.6 -109.504,-3.6 -36.602,-0.6 -73.102,-1.3 -109.703,-1.2 -36.497,0 -73.094,0.11 -109.696,1.4 36.5,2.8 72.996,4.6 109.598,6.21 36.5,1.79 73,2.7 109.504,3.59 36.597,0.7 73.094,1.41 109.695,1.3 l 42.5,-0.1 c 2.5,46.5 8.199,96.3 17.301,147.71 l 0.301,1.5 c -20.903,3.3 -41.801,6.8 -62.7,10.29 -42.203,7.1 -84.3,15 -126.402,22.41 -42,8.3 -84.101,16.09 -126,24.8 l -62.898,13.09 c -20.801,4.8 -41.797,9.2 -62.598,14.3 21.195,-2.89 42.398,-6.3 63.496,-9.4 l 63.402,-10.49 c 42.2,-7.01 84.297,-15 126.403,-22.41 41.996,-8.29 84.094,-16.09 125.996,-24.8 20.699,-4.29 41.398,-8.59 62.098,-13.09 10.8,59.69 25.101,115.59 41.601,165.39 l -32.398,22.3 c -30.602,21 -60.7,42.61 -90.801,64.21 -29.902,21.79 -59.899,43.69 -89.399,66.1 -29.5,22.39 -59.003,44.89 -87.8,68.3 31.199,-20 61.8,-41 92.297,-62.11 30.601,-21 60.703,-42.6 90.8,-64.19 29.907,-21.81 59.903,-43.61 89.403,-66.11 l 29.8,-22.7 c 11,32.61 23,62.5 35.598,89 -14.101,12.5 -27.898,25.5 -41.601,38.5 -15.899,15.31 -31.7,30.6 -46.997,46.5 -15.402,15.8 -30.703,31.71 -45.199,48.41 17.297,-13.71 33.996,-28.3 50.496,-42.91 16.5,-14.5 32.602,-29.7 48.606,-44.8 12.894,-12.4 25.797,-24.9 38.496,-37.7 39.699,81 85,128.4 124.797,121.41 4.601,-0.8 9.008,-2.3 13.203,-4.51 v 0.1 l 0.601,-0.39 L 1120.55,3530 v 270.91 c 0,186.59 68.6,195.7 153.4,195.7 h 303 c 17.6,0 32,-20 32,-44.81 v -10.69 c 0,-58.1 31.8,-58.31 70.8,-58.31 h 700.59 c 39.41,0 71.01,0.21 71.01,58.31 v 10.69 c 0,24.81 14.2,44.81 32.1,44.81 h 302.9 c 84.6,0 153.2,-24.81 153.2,-195.7 v -1435.8 c 28.19,-41.2 48.8,-76.9 60,-104.2 53,-129.11 150.69,-606.8 150.69,-606.8 l -21.49,-1.7 c 2.2,-15.61 3.9,-29.91 5.1,-42.81 v -0.09 c 15.4,-54.2 65.3,-205.5 65.8,-262.6"
         id="path160" /></clipPath></defs><sodipodi:namedview
     pagecolor="#ffffff"
     bordercolor="#666666"
     borderopacity="1"
     objecttolerance="10"
     gridtolerance="10"
     guidetolerance="10"
     inkscape:pageopacity="0"
     inkscape:pageshadow="2"
     inkscape:window-width="640"
     inkscape:window-height="480"
     id="namedview4" /><g
     id="g10"
     inkscape:groupmode="layer"
     inkscape:label="ink_ext_XXXXXX"
     transform="matrix(1.3333333,0,0,-1.3333333,0,568.08)"><g
       id="g12"
       transform="scale(0.1)"><path
         d="m 134.023,2446.14 c -55.7847,150.08 20.657,316.97 170.735,372.75 150.082,55.79 316.965,-20.64 372.754,-170.73 55.785,-150.08 -20.653,-316.96 -170.731,-372.75 -150.082,-55.79 -316.965,20.65 -372.758,170.73"
         style="fill:#e7e8e5;fill-opacity:1;fill-rule:nonzero;stroke:none"
         id="path14" /><path
         d="m 556.934,2528.36 c -33.258,-92.82 -130.661,-156.98 -130.661,-156.98 0,0 -109.578,39.97 -163.261,122.63 -44.785,68.95 -31.074,150.73 24.093,174.69 79.079,34.37 116.797,-105.93 116.797,-105.93 0,0 4.352,145.22 89.301,130.02 59.203,-10.59 91.406,-87.01 63.731,-164.43"
         style="fill:#ffffff;fill-opacity:1;fill-rule:nonzero;stroke:none"
         id="path16" /><path
         d="m 3713.76,1645.11 c -26.44,-13.44 -55.36,-22.96 -86.29,-27.7 -80,-12.42 -157.34,9.04 -217.47,53.93 -58.82,43.75 -101.29,109.84 -113.48,188.04 -24.46,158.3 83.8,306.47 242.1,330.94 158.19,24.6 306.35,-83.79 330.94,-242.1 19.71,-127.38 -46.73,-248.11 -155.8,-303.11"
         style="fill:#e7e8e5;fill-opacity:1;fill-rule:nonzero;stroke:none"
         id="path18" /><path
         d="m 3673.71,1929.32 c -4.17,-48.55 -46.9,-84.51 -95.45,-80.34 -48.53,4.17 -84.51,46.9 -80.34,95.45 4.17,48.53 46.9,84.51 95.45,80.34 48.54,-4.17 84.51,-46.91 80.34,-95.45"
         style="fill:#ffffff;fill-opacity:1;fill-rule:nonzero;stroke:none"
         id="path20" /><path
         d="m 3716.88,1681.37 -3.12,-36.26 c -26.44,-13.44 -55.36,-22.96 -86.29,-27.7 -80,-12.42 -157.34,9.04 -217.47,53.93 l 3.11,36.12 c 7.18,83.69 81,146.06 164.93,138.84 83.93,-7.21 146.02,-81.25 138.84,-164.93"
         style="fill:#ffffff;fill-opacity:1;fill-rule:nonzero;stroke:none"
         id="path22" /><path
         d="m 3139.34,3866.54 c -41.73,170.87 62.96,343.21 233.81,384.93 170.87,41.73 343.21,-62.95 384.94,-233.82 41.73,-170.86 -62.95,-343.2 -233.82,-384.93 -170.86,-41.72 -343.2,62.96 -384.93,233.82"
         style="fill:#e7e8e5;fill-opacity:1;fill-rule:nonzero;stroke:none"
         id="path24" /><path
         d="m 3405.29,3815.4 c -8.41,5.29 -15.74,12.98 -27.04,11.91 -4.31,-0.43 -3.37,3.15 -3.4,5.5 -0.05,42.45 -0.04,84.84 -0.07,127.25 0,3.09 0.18,5.63 3.54,7.32 32.39,16.34 46.46,48.48 66.3,75.95 21.22,29.32 28.51,61.09 23.51,96.25 -1.36,9.55 3.09,13.82 11.69,15.78 10.36,2.36 20.67,-0.51 24.21,-7.62 8.72,-17.64 16.22,-35.98 18.5,-55.59 1.87,-16.09 -3.9,-31.75 -5.91,-47.67 -1.47,-11.65 -4.19,-23.16 -6.39,-34.95 2.84,-2.07 6.14,-0.99 9.18,-1.04 35.84,-0.05 71.67,-0.04 107.51,-0.04 15.1,0 22.5,-4.34 24.59,-14.36 2.58,-12.48 -4.02,-25.18 -15.6,-31.07 -2.68,-1.35 -7.52,-0.13 -7.85,-4.32 -0.32,-4.28 4.67,-3.84 7.15,-5.56 12.96,-8.91 10.56,-27.25 -4.46,-37.86 -3.6,-2.54 -10.6,-1.37 -10.78,-6.66 -0.09,-4.23 6.47,-4.18 9.43,-7.15 10.47,-10.35 5.27,-29.67 -10.38,-37.47 -2.01,-0.99 -4.49,-1.18 -6.29,-2.43 -1.78,-1.21 -3.53,-2.54 -0.07,-4.98 15.51,-11.09 15.18,-26.53 -0.44,-37.78 -1.54,-1.11 -3.1,-2.24 -4.67,-3.36 -5.68,-4.16 -12.39,-4.1 -18.88,-4.12 -56.19,-0.12 -112.38,-0.08 -168.58,-0.04 -5.27,0 -10.59,0.16 -14.8,4.11"
         style="fill:#ffffff;fill-opacity:1;fill-rule:evenodd;stroke:none"
         id="path26" /><path
         d="m 3245.51,3890.21 c 0,26.95 0.13,53.92 -0.09,80.86 -0.04,5.48 0.52,8.17 7.24,8.1 32.89,-0.41 65.73,-0.4 98.6,-0.04 6.45,0.07 7.45,-2.15 7.41,-7.87 -0.18,-54.24 -0.23,-108.47 0.04,-162.71 0.04,-6.9 -1.84,-8.85 -8.77,-8.74 -31.88,0.36 -63.78,0.44 -95.63,-0.06 -7.94,-0.13 -9.04,2.65 -8.95,9.59 0.4,26.96 0.15,53.91 0.15,80.87"
         style="fill:#ffffff;fill-opacity:1;fill-rule:evenodd;stroke:none"
         id="path28" /><path
         d="m 663.453,950.32 c 16.465,-106.75 -43.808,-219.422 -43.808,-219.422 0,0 -126.387,-18.75 -221.254,32.801 -79.137,43 -108.661,128.903 -68.051,180.793 58.18,74.398 167.789,-40.98 167.789,-40.98 0,0 -71.668,142.088 18.074,171.828 62.543,20.73 133.461,-36.03 147.25,-125.02"
         style="fill:#e7e8e5;fill-opacity:1;fill-rule:nonzero;stroke:none"
         id="path30" /><path
         d="m 884.059,1213.03 c -47.778,-63.53 -138.102,-89.67 -138.102,-89.67 0,0 -74.828,56.95 -96.422,133.42 -18.012,63.78 12.078,123.48 60.274,128.75 69.101,7.58 64.636,-109.46 64.636,-109.46 0,0 38.032,110.77 99.813,78.78 43.058,-22.3 49.594,-88.82 9.801,-141.82"
         style="fill:#e7e8e5;fill-opacity:1;fill-rule:nonzero;stroke:none"
         id="path32" /><path
         d="M 3614.39,212.129 C 3614.39,94.9688 2905.1,-0.0078125 2030.15,-0.0078125 1155.2,-0.0078125 445.902,94.9688 445.902,212.129 c 0,117.16 709.298,212.133 1584.248,212.133 874.95,0 1584.24,-94.973 1584.24,-212.133"
         style="fill:#e7e8e5;fill-opacity:1;fill-rule:nonzero;stroke:none"
         id="path34" /><path
         d="m 0,394.602 507.535,2.429 507.535,0.891 1015.08,1.668 1015.08,-1.66 507.52,-0.879 507.54,-2.449 -507.54,-2.442 -507.52,-0.879 -1015.08,-1.672 -1015.08,1.68 -507.535,0.883 L 0,394.602"
         style="fill:#17282f;fill-opacity:1;fill-rule:nonzero;stroke:none"
         id="path36" /><path
         d="m 2939.6,560.309 c 0,-91.61 -68.6,-165.707 -153.2,-165.707 H 1273.99 c -84.8,0 -153.39,74.097 -153.39,165.707 V 3800.91 c 0,186.59 68.59,195.7 153.39,195.7 h 302.91 c 17.6,0 32,-20 32,-44.81 v -10.69 c 0,-58.1 31.8,-58.31 70.9,-58.31 h 700.6 c 39.4,0 70.9,0.21 70.9,58.31 v 10.69 c 0,24.81 14.2,44.81 32.1,44.81 h 303 c 84.6,0 153.2,-24.81 153.2,-195.7 z M 2875.29,4107 H 1184.8 c -94.4,0 -171,-77.89 -171,-174.2 V 452.711 c 0,-96.109 76.6,-174.199 171,-174.199 h 1690.49 c 94.51,0 171.2,78.09 171.2,174.199 V 3932.8 c 0,96.31 -76.69,174.2 -171.2,174.2"
         style="fill:#17282f;fill-opacity:1;fill-rule:nonzero;stroke:none"
         id="path38" /><path
         d="m 2125.65,3955.38 h -191.09 c -6.53,0 -11.81,5.28 -11.81,11.8 0,6.52 5.28,11.8 11.81,11.8 h 191.09 c 6.53,0 11.81,-5.28 11.81,-11.8 0,-6.52 -5.28,-11.8 -11.81,-11.8"
         style="fill:#ffffff;fill-opacity:1;fill-rule:nonzero;stroke:none"
         id="path40" /><path
         d="M 2939.6,3800.91 V 560.309 c 0,-91.61 -68.6,-165.707 -153.2,-165.707 H 1273.99 c -84.8,0 -153.39,74.097 -153.39,165.707 V 3800.91 c 0,186.59 68.59,195.7 153.39,195.7 h 302.9 c 17.61,0 32.01,-20 32.01,-44.81 v -10.69 c 0,-58.1 31.8,-58.31 70.9,-58.31 h 700.6 c 39.39,0 70.9,0.21 70.9,58.31 v 10.69 c 0,24.81 14.2,44.81 32.1,44.81 h 303 c 84.6,0 153.2,-24.81 153.2,-195.7"
         style="fill:#ffffff;fill-opacity:1;fill-rule:nonzero;stroke:none"
         id="path42" /><path
         d="m 2939.55,3800.91 v -241.8 h -1819 v 241.8 c 0,186.59 68.6,195.7 153.4,195.7 h 303 c 17.6,0 32,-20 32,-44.81 v -10.69 c 0,-58.1 31.8,-58.31 70.8,-58.31 h 700.59 c 39.41,0 71.01,0.21 71.01,58.31 v 10.69 c 0,24.81 14.2,44.81 32.1,44.81 h 302.9 c 84.6,0 153.2,-24.81 153.2,-195.7"
         style="fill:#fabb1e;fill-opacity:1;fill-rule:nonzero;stroke:none"
         id="path44" /><path
         d="m 1292.94,3677.16 -53.75,50.35 53.75,50.35 8.34,-8.89 -44.26,-41.46 44.26,-41.47 -8.34,-8.88"
         style="fill:#ffffff;fill-opacity:1;fill-rule:nonzero;stroke:none"
         id="path46" /><path
         d="m 2756.51,3747.07 c -10.77,0 -19.54,-8.78 -19.54,-19.57 0,-10.77 8.77,-19.54 19.54,-19.54 10.8,0 19.57,8.77 19.57,19.54 0,10.79 -8.77,19.57 -19.57,19.57 z m 0,-46.61 c -14.91,0 -27.04,12.13 -27.04,27.04 0,14.93 12.13,27.07 27.04,27.07 14.93,0 27.07,-12.14 27.07,-27.07 0,-14.91 -12.14,-27.04 -27.07,-27.04 z m -10.46,-19.32 h 20.96 v 4.97 c 0,3.95 2.22,7.53 5.77,9.35 1.15,0.58 2.26,1.22 3.33,1.92 3.34,2.2 7.59,2.35 11.02,0.36 l 4.32,-2.49 10.47,18.15 -4.35,2.52 c -3.4,1.96 -5.38,5.67 -5.16,9.69 l 0.04,1.89 -0.05,1.94 c -0.21,4 1.78,7.73 5.2,9.69 l 4.31,2.48 -10.46,18.15 -4.3,-2.48 c -3.42,-1.98 -7.64,-1.85 -11.02,0.35 -1.06,0.69 -2.17,1.34 -3.33,1.92 -3.57,1.82 -5.79,5.4 -5.79,9.35 v 4.97 h -20.96 v -4.97 c 0,-3.95 -2.22,-7.53 -5.8,-9.35 -1.15,-0.58 -2.26,-1.23 -3.33,-1.92 -3.36,-2.2 -7.6,-2.33 -11.01,-0.35 l -4.3,2.48 -10.47,-18.15 4.31,-2.48 c 3.4,-1.96 5.38,-5.68 5.19,-9.72 l -0.05,-1.91 0.04,-1.89 c 0.2,-4.06 -1.78,-7.77 -5.17,-9.72 l -4.32,-2.49 10.47,-18.15 4.32,2.49 c 3.44,1.99 7.66,1.85 11.01,-0.36 1.07,-0.7 2.17,-1.34 3.32,-1.92 3.57,-1.82 5.79,-5.4 5.79,-9.35 z m 28.46,-7.5 h -35.96 v 12.47 c 0,1.12 -0.65,2.14 -1.69,2.67 -1.38,0.7 -2.72,1.48 -4.02,2.32 -0.99,0.65 -2.2,0.69 -3.16,0.14 l -10.82,-6.23 -17.97,31.14 10.82,6.23 c 0.94,0.54 1.49,1.63 1.43,2.83 l -0.05,2.29 0.06,2.31 c 0.05,1.18 -0.5,2.27 -1.45,2.82 l -10.81,6.24 17.97,31.13 10.8,-6.23 c 0.98,-0.56 2.19,-0.51 3.16,0.13 1.3,0.85 2.65,1.63 4.04,2.34 1.04,0.53 1.69,1.55 1.69,2.66 v 12.47 h 35.96 v -12.47 c 0,-1.11 0.65,-2.13 1.69,-2.66 1.39,-0.71 2.74,-1.49 4.03,-2.34 0.99,-0.64 2.21,-0.69 3.17,-0.13 l 10.8,6.23 17.97,-31.14 -10.83,-6.23 c -0.96,-0.55 -1.51,-1.63 -1.45,-2.83 l 0.06,-2.3 -0.05,-2.24 c -0.07,-1.23 0.48,-2.31 1.42,-2.85 l 10.84,-6.27 -17.96,-31.13 -10.82,6.23 c -0.94,0.55 -2.16,0.51 -3.16,-0.13 -1.29,-0.85 -2.64,-1.63 -4.02,-2.33 -1.04,-0.53 -1.69,-1.55 -1.69,-2.67 v -12.47"
         style="fill:#ffffff;fill-opacity:1;fill-rule:nonzero;stroke:none"
         id="path48" /><path
         d="m 1524.63,3923.82 c -0.98,-0.97 -1.95,-1.94 -2.93,-2.91 l -1.66,-1.66 c -7.86,7.63 -17.22,11.7 -28.18,11.7 -10.97,0.01 -20.33,-4.06 -28.25,-11.73 l -1.58,1.65 c -0.96,0.97 -1.93,1.93 -2.89,2.9 l -0.09,0.05 v 0.07 l 0.22,0.18 c 1.23,1.09 2.43,2.23 3.7,3.27 2.63,2.17 5.51,3.96 8.56,5.46 3.61,1.77 7.39,3.09 11.35,3.81 1.87,0.35 3.77,0.52 5.66,0.76 l 4.97,0.08 c 1.28,-0.1 2.57,-0.15 3.86,-0.29 3.57,-0.39 7.03,-1.25 10.41,-2.49 2.44,-0.89 4.78,-1.99 7.04,-3.29 2.38,-1.37 4.63,-2.92 6.72,-4.71 1.05,-0.9 2.06,-1.85 3.09,-2.78 v -0.07"
         style="fill:#ffffff;fill-opacity:1;fill-rule:nonzero;stroke:none"
         id="path50" /><path
         d="m 1472.9,3910.05 c -1.55,1.54 -3.07,3.04 -4.63,4.59 5.27,5.17 11.5,8.45 18.82,9.45 10.94,1.48 20.34,-1.85 28.31,-9.39 -1.58,-1.56 -3.1,-3.08 -4.65,-4.62 -5.23,5.08 -11.54,7.82 -18.92,7.82 -7.37,0 -13.67,-2.75 -18.93,-7.85"
         style="fill:#ffffff;fill-opacity:1;fill-rule:nonzero;stroke:none"
         id="path52" /><path
         d="m 1506.13,3905.43 c -1.52,-1.52 -3.05,-3.05 -4.6,-4.6 -2.67,2.59 -5.9,4.03 -9.7,4.02 -3.78,0 -7.01,-1.42 -9.7,-4.04 -1.54,1.54 -3.06,3.07 -4.59,4.59 7.32,7.67 20.49,8.28 28.59,0.03"
         style="fill:#ffffff;fill-opacity:1;fill-rule:nonzero;stroke:none"
         id="path54" /><path
         d="m 1495.99,3896.65 c 0,-2.29 -1.86,-4.15 -4.16,-4.15 -2.29,0 -4.15,1.86 -4.15,4.15 0,2.3 1.86,4.16 4.15,4.16 2.3,0 4.16,-1.86 4.16,-4.16"
         style="fill:#ffffff;fill-opacity:1;fill-rule:nonzero;stroke:none"
         id="path56" /><path
         d="m 1239.19,3914.97 c 0,6.66 5.4,12.06 12.06,12.06 6.66,0 12.06,-5.4 12.06,-12.06 0,-6.65 -5.4,-12.05 -12.06,-12.05 -6.66,0 -12.06,5.4 -12.06,12.05"
         style="fill:#ffffff;fill-opacity:1;fill-rule:nonzero;stroke:none"
         id="path58" /><path
         d="m 1277.16,3914.97 c 0,6.66 5.4,12.06 12.06,12.06 6.66,0 12.06,-5.4 12.06,-12.06 0,-6.65 -5.4,-12.05 -12.06,-12.05 -6.66,0 -12.06,5.4 -12.06,12.05"
         style="fill:#ffffff;fill-opacity:1;fill-rule:nonzero;stroke:none"
         id="path60" /><path
         d="m 1315.14,3914.97 c 0,6.66 5.39,12.06 12.05,12.06 6.66,0 12.05,-5.4 12.05,-12.06 0,-6.65 -5.39,-12.05 -12.05,-12.05 -6.66,0 -12.05,5.4 -12.05,12.05"
         style="fill:#ffffff;fill-opacity:1;fill-rule:nonzero;stroke:none"
         id="path62" /><path
         d="m 1353.11,3914.97 c 0,6.66 5.39,12.06 12.05,12.06 6.66,0 12.06,-5.4 12.06,-12.06 0,-6.65 -5.4,-12.05 -12.06,-12.05 -6.66,0 -12.05,5.4 -12.05,12.05"
         style="fill:#ffffff;fill-opacity:1;fill-rule:nonzero;stroke:none"
         id="path64" /><path
         d="m 1391.07,3914.97 c 0,6.66 5.41,12.06 12.06,12.06 6.66,0 12.06,-5.4 12.06,-12.06 0,-6.65 -5.4,-12.05 -12.06,-12.05 -6.65,0 -12.06,5.4 -12.06,12.05"
         style="fill:#ffffff;fill-opacity:1;fill-rule:nonzero;stroke:none"
         id="path66" /><path
         d="m 2709.99,3893.66 h 88.14 v 35.46 h -88.14 z m 93.14,-5 h -98.14 v 45.46 h 98.14 v -45.46"
         style="fill:#ffffff;fill-opacity:1;fill-rule:nonzero;stroke:none"
         id="path68" /><path
         d="m 2776.39,3926.4 h -63.26 v -30.02 h 63.26 v 30.02"
         style="fill:#ffffff;fill-opacity:1;fill-rule:nonzero;stroke:none"
         id="path70" /><path
         d="m 2811.91,3899.23 h -8.73 v 24.32 h 8.73 v -24.32"
         style="fill:#ffffff;fill-opacity:1;fill-rule:nonzero;stroke:none"
         id="path72" /><path
         d="m 1396.98,592.711 h -13.83 v -63.512 h -25.84 v 32.371 h -45.76 v -32.371 h -25.84 v 63.512 h -13.83 l 62.55,64.641 62.55,-64.641"
         style="fill:#e7e8e5;fill-opacity:1;fill-rule:nonzero;stroke:none"
         id="path74" /><path
         d="m 2788.42,635.801 h -150.77 v 21.551 h 150.77 v -21.551"
         style="fill:#e7e8e5;fill-opacity:1;fill-rule:nonzero;stroke:none"
         id="path76" /><path
         d="m 2788.42,582.5 h -150.77 v 21.551 h 150.77 V 582.5"
         style="fill:#e7e8e5;fill-opacity:1;fill-rule:nonzero;stroke:none"
         id="path78" /><path
         d="m 2788.42,529.199 h -150.77 v 21.551 h 150.77 v -21.551"
         style="fill:#e7e8e5;fill-opacity:1;fill-rule:nonzero;stroke:none"
         id="path80" /><path
         d="m 1394.04,3240.97 c -8.81,-5.48 -18.62,-9.66 -29.26,-12.25 -27.53,-6.72 -55.15,-1.55 -77.46,12.3 -21.83,13.5 -38.62,35.28 -45.21,62.18 -13.28,54.48 20.04,109.4 74.52,122.68 54.43,13.31 109.35,-20.05 122.67,-74.53 10.69,-43.83 -8.87,-87.93 -45.26,-110.38"
         style="fill:#d4d6d3;fill-opacity:1;fill-rule:nonzero;stroke:none"
         id="path82" /><path
         d="m 1371.56,3338.89 c 0,-17.05 -13.83,-30.87 -30.88,-30.87 -17.06,0 -30.88,13.82 -30.88,30.87 0,17.06 13.82,30.88 30.88,30.88 17.05,0 30.88,-13.82 30.88,-30.88"
         style="fill:#ffffff;fill-opacity:1;fill-rule:nonzero;stroke:none"
         id="path84" /><path
         d="m 1394.04,3253.71 v -12.74 c -8.81,-5.48 -18.62,-9.66 -29.26,-12.25 -27.53,-6.72 -55.15,-1.55 -77.46,12.3 v 12.69 c 0,29.4 23.88,53.36 53.36,53.36 29.49,0 53.36,-23.96 53.36,-53.36"
         style="fill:#ffffff;fill-opacity:1;fill-rule:nonzero;stroke:none"
         id="path86" /><path
         d="m 1569.42,3369.77 h 645.129 v 53.1992 H 1569.42 Z"
         style="fill:#e7e8e5;fill-opacity:1;fill-rule:nonzero;stroke:none"
         id="path88" /><path
         d="m 1569.42,3299.04 h 563.109 v 35.2461 H 1569.42 Z"
         style="fill:#e7e8e5;fill-opacity:1;fill-rule:nonzero;stroke:none"
         id="path90" /><path
         d="m 1569.42,3231.19 h 931.117 v 35.2422 H 1569.42 Z"
         style="fill:#e7e8e5;fill-opacity:1;fill-rule:nonzero;stroke:none"
         id="path92" /><path
         d="M 1120.6,1868.13 H 2939.3 V 3141.74 H 1120.6 Z"
         style="fill:#e7e8e5;fill-opacity:1;fill-rule:nonzero;stroke:none"
         id="path94" /><path
         d="m 1333.14,2779.7 c 0,-83.22 67.45,-150.67 150.66,-150.67 83.22,0 150.68,67.45 150.68,150.67 0,83.21 -67.46,150.67 -150.68,150.67 -83.21,0 -150.66,-67.46 -150.66,-150.67"
         style="fill:#d4d6d3;fill-opacity:1;fill-rule:nonzero;stroke:none"
         id="path96" /><path
         d="m 1928.16,2145.21 h 1011.39 l -505.7,685.45 z"
         style="fill:#bebfbd;fill-opacity:1;fill-rule:nonzero;stroke:none"
         id="path98" /><path
         d="m 1531.7,2141.92 h 835.01 l -417.51,446.35 z"
         style="fill:#d4d6d3;fill-opacity:1;fill-rule:nonzero;stroke:none"
         id="path100" /><path
         d="M 2939.3,1868.13 H 1120.6 v 274.4 h 1818.7 v -274.4"
         style="fill:#d4d6d3;fill-opacity:1;fill-rule:nonzero;stroke:none"
         id="path102" /><path
         d="m 1394.04,1196.56 c -8.81,-5.48 -18.61,-9.67 -29.26,-12.25 -27.53,-6.73 -55.15,-1.56 -77.46,12.28 -21.83,13.5 -38.62,35.29 -45.21,62.19 -13.28,54.48 20.04,109.4 74.52,122.67 54.43,13.32 109.35,-20.04 122.67,-74.51 10.69,-43.84 -8.86,-87.93 -45.26,-110.38"
         style="fill:#d4d6d3;fill-opacity:1;fill-rule:nonzero;stroke:none"
         id="path104" /><path
         d="m 1371.56,1294.48 c 0,-17.06 -13.83,-30.88 -30.88,-30.88 -17.06,0 -30.88,13.82 -30.88,30.88 0,17.05 13.82,30.87 30.88,30.87 17.05,0 30.88,-13.82 30.88,-30.87"
         style="fill:#ffffff;fill-opacity:1;fill-rule:nonzero;stroke:none"
         id="path106" /><path
         d="m 1394.04,1209.29 v -12.73 c -8.81,-5.48 -18.61,-9.67 -29.26,-12.25 -27.53,-6.73 -55.15,-1.56 -77.46,12.28 v 12.7 c 0,29.4 23.88,53.37 53.36,53.37 29.49,0 53.36,-23.97 53.36,-53.37"
         style="fill:#ffffff;fill-opacity:1;fill-rule:nonzero;stroke:none"
         id="path108" /><path
         d="m 2399.11,1325.35 h -829.69 v 53.21 h 829.69 v -53.21"
         style="fill:#e7e8e5;fill-opacity:1;fill-rule:nonzero;stroke:none"
         id="path110" /><path
         d="M 2628.57,1254.62 H 1569.42 v 35.24 h 1059.15 v -35.24"
         style="fill:#e7e8e5;fill-opacity:1;fill-rule:nonzero;stroke:none"
         id="path112" /><path
         d="m 1930.23,1186.77 h -360.81 v 35.24 h 360.81 v -35.24"
         style="fill:#e7e8e5;fill-opacity:1;fill-rule:nonzero;stroke:none"
         id="path114" /><path
         d="M 2939.3,1097.31 V 786.199 H 1120.6 v 311.111 h 1818.7"
         style="fill:#e7e8e5;fill-opacity:1;fill-rule:nonzero;stroke:none"
         id="path116" /><path
         d="M 1625.6,786.199 H 1342 c 20.9,58.102 76.5,99.699 141.8,99.699 65.3,0 121,-41.597 141.8,-99.699"
         style="fill:#d4d6d3;fill-opacity:1;fill-rule:nonzero;stroke:none"
         id="path118" /><path
         d="m 1242.79,1718.88 c -7.89,32.29 11.9,64.87 44.2,72.76 32.3,7.89 64.88,-11.9 72.77,-44.2 7.89,-32.3 -11.9,-64.88 -44.2,-72.77 -32.3,-7.89 -64.88,11.91 -72.77,44.21"
         style="fill:#e7e8e5;fill-opacity:1;fill-rule:nonzero;stroke:none"
         id="path120" /><path
         d="m 1293.07,1709.21 c -1.59,1 -2.98,2.45 -5.12,2.25 l -0.63,1.04 c -0.02,8.02 -0.01,16.04 -0.02,24.06 l 0.67,1.37 c 6.12,3.1 8.78,9.17 12.53,14.37 4.01,5.53 5.39,11.54 4.44,18.19 -0.25,1.81 0.59,2.62 2.21,2.98 1.96,0.45 3.91,-0.09 4.58,-1.44 1.65,-3.34 3.07,-6.8 3.5,-10.5 0.35,-3.05 -0.74,-6.01 -1.12,-9.02 -0.28,-2.19 -0.79,-4.37 -1.21,-6.61 l 1.74,-0.19 c 6.77,-0.01 13.55,0 20.32,0 2.86,0 4.25,-0.82 4.65,-2.72 0.49,-2.36 -0.76,-4.76 -2.95,-5.88 l -1.48,-0.82 1.35,-1.04 c 2.45,-1.68 2,-5.16 -0.84,-7.16 -0.68,-0.48 -2.01,-0.26 -2.04,-1.26 l 1.78,-1.35 c 1.98,-1.96 1,-5.61 -1.96,-7.09 l -1.19,-0.46 -0.01,-0.93 c 2.93,-2.1 2.87,-5.02 -0.09,-7.15 l -0.88,-0.63 c -1.07,-0.79 -2.34,-0.78 -3.57,-0.78 -10.62,-0.02 -21.25,-0.02 -31.87,-0.01 -0.99,0 -2,0.03 -2.79,0.78"
         style="fill:#ffffff;fill-opacity:1;fill-rule:evenodd;stroke:none"
         id="path122" /><path
         d="m 1262.86,1723.35 c 0,5.09 0.03,10.2 -0.02,15.29 0,1.03 0.1,1.54 1.37,1.53 6.22,-0.08 12.43,-0.08 18.64,-0.01 1.22,0.01 1.41,-0.41 1.4,-1.49 -0.03,-10.25 -0.04,-20.5 0.01,-30.76 0.01,-1.31 -0.35,-1.68 -1.66,-1.65 -6.03,0.07 -12.05,0.08 -18.08,-0.01 -1.5,-0.03 -1.7,0.5 -1.69,1.81 0.08,5.1 0.03,10.19 0.03,15.29"
         style="fill:#ffffff;fill-opacity:1;fill-rule:evenodd;stroke:none"
         id="path124" /><path
         d="m 1369.23,1718.88 c -7.88,32.29 11.91,64.87 44.21,72.76 32.3,7.89 64.88,-11.9 72.76,-44.2 7.89,-32.3 -11.9,-64.88 -44.2,-72.77 -32.3,-7.89 -64.88,11.91 -72.77,44.21"
         style="fill:#fabb1e;fill-opacity:1;fill-rule:nonzero;stroke:none"
         id="path126" /><path
         d="m 1458.45,1725.64 c -9.1,-18.34 -30.74,-29.23 -30.74,-29.23 0,0 -21.64,10.89 -30.72,29.23 -7.57,15.3 -2.77,31.83 9.18,35.45 17.15,5.18 21.54,-24.66 21.54,-24.66 0,0 4.4,29.84 21.56,24.66 11.95,-3.62 16.75,-20.15 9.18,-35.45"
         style="fill:#ffffff;fill-opacity:1;fill-rule:nonzero;stroke:none"
         id="path128" /><path
         d="M 2433.85,1706.24 H 1579.4 v 34.79 h 854.45 v -34.79"
         style="fill:#e7e8e5;fill-opacity:1;fill-rule:nonzero;stroke:none"
         id="path130" /><path
         d="m 1120.6,1533.49 227.34,1.82 227.33,0.66 454.68,1.26 454.67,-1.25 227.34,-0.65 227.34,-1.84 -227.34,-1.84 -227.34,-0.66 -454.67,-1.25 -454.68,1.26 -227.33,0.66 -227.34,1.83"
         style="fill:#e7e8e5;fill-opacity:1;fill-rule:nonzero;stroke:none"
         id="path132" /><path
         d="M 929.984,1548.66 316.449,1385.07 152.867,1998.6 766.402,2162.19 929.984,1548.66"
         style="fill:#33535f;fill-opacity:1;fill-rule:nonzero;stroke:none"
         id="path134" /><path
         d="m 501.789,1693.49 c -28.68,-7.65 -54.883,-14.63 -82.262,-21.93 -8.57,32.14 -16.648,62.46 -25.187,94.46 26.699,7.12 52.863,14.1 80.683,21.51 -1.55,7.28 -2.625,12.97 -3.988,18.61 -6.043,24.95 -13.695,49.62 -17.953,74.87 -9.371,55.56 13.707,102.7 65.34,124.41 32.207,13.54 67.808,19 102.766,28.32 7.812,-29.29 14.945,-56.05 22.917,-85.95 -12.472,-3.33 -24.937,-6.38 -37.234,-10.01 -10.992,-3.25 -22.484,-5.79 -32.516,-11.03 -14.281,-7.46 -21.917,-20.58 -18.257,-36.86 5.484,-24.39 12.636,-48.39 19.613,-74.55 31.043,8.29 61.344,16.36 93.812,25.02 4.278,-31.94 8.559,-61.56 11.707,-91.28 0.305,-2.89 -5.898,-8.3 -9.976,-9.51 -22.457,-6.65 -45.199,-12.36 -69.738,-18.9 21.664,-81.24 42.961,-161.13 64.621,-242.37 -33.696,-8.98 -65.508,-17.47 -99.871,-26.63 -21.364,80.12 -42.676,160.06 -64.477,241.82"
         style="fill:#ffffff;fill-opacity:1;fill-rule:nonzero;stroke:none"
         id="path136" /><path
         d="m 3734.14,802.531 -633.61,62.77 62.76,633.609 633.61,-62.76 -62.76,-633.619"
         style="fill:#fabb1e;fill-opacity:1;fill-rule:nonzero;stroke:none"
         id="path138" /><path
         d="m 3627.3,1002 c -4.41,-40.039 -28.21,-60.102 -68.38,-56.391 -86.12,7.981 -172.17,16.5 -258.19,25.563 -40.28,4.219 -59.9,28.519 -56.17,68.468 8.22,86.87 16.83,173.68 25.8,260.47 4.1,39.76 28.62,60.39 68.36,56.74 86.11,-7.93 172.18,-16.46 258.18,-25.58 39.79,-4.22 59.68,-29.15 56.19,-68.85 -3.81,-43.46 -8.49,-86.83 -12.79,-130.24 -4.29,-43.36 -8.22,-86.81 -13,-130.18 z m 67.21,254.39 c 6.02,63.46 -29.52,108.4 -92.35,115.23 -86.9,9.49 -173.94,18.16 -261.01,25.85 -61.59,5.44 -105.5,-31.35 -112.52,-92.67 -4.89,-43.36 -8.71,-86.88 -13,-130.29 -4.21,-42.49 -8.71,-85 -12.58,-127.52 -5.88,-64.888 29.56,-110.26 93.69,-117.271 85.97,-9.449 172.08,-18.039 258.23,-25.59 63.02,-5.52 107.42,31.891 113.97,94.531 8.99,85.84 17.45,171.8 25.57,257.73"
         style="fill:#ffffff;fill-opacity:1;fill-rule:nonzero;stroke:none"
         id="path140" /><path
         d="m 3439.48,1070.27 c -43.27,5.16 -75.74,45.03 -71.91,88.09 3.95,44.45 44.18,77.32 89.17,72.86 44.88,-4.45 77.99,-44.59 73.21,-88.88 -4.73,-43.98 -46.54,-77.3 -90.47,-72.07 z m 21.62,202.76 c -66.35,6.74 -126.15,-41.78 -133.4,-108.41 -7.34,-67.39 39.5,-126.96 106.12,-134.88 68.25,-8.08 128.69,39.72 136.08,107.7 7.45,68.04 -41.2,128.73 -108.8,135.59"
         style="fill:#ffffff;fill-opacity:1;fill-rule:nonzero;stroke:none"
         id="path142" /><path
         d="m 3619.42,1260.27 c -2.99,-16.96 -14.82,-24.8 -31.54,-22.32 -18.36,2.7 -26.65,14.94 -23.49,32.98 2.93,16.91 14.82,23.69 31.94,22.99 17.01,-4.65 26.26,-15.51 23.09,-33.65"
         style="fill:#ffffff;fill-opacity:1;fill-rule:nonzero;stroke:none"
         id="path144" /><path
         d="m 3553.69,2374.04 -446.11,158.75 158.74,446.1 446.11,-158.74 -158.74,-446.11"
         style="fill:#33535f;fill-opacity:1;fill-rule:nonzero;stroke:none"
         id="path146" /><path
         d="m 3200.8,2626.52 c 36.35,-13.72 72.37,-16.52 110,-4.72 -36.57,27.05 -48.47,45.38 -46.13,70.82 9.35,-2.82 18.67,-5.62 27.99,-8.43 -27.94,23.94 -39.22,52.45 -29.08,88.85 8.99,-6.16 17.32,-11.86 25.65,-17.57 -16.41,47.93 -12.1,79.04 15.25,99.77 22.79,-57.47 61.68,-99.33 119.54,-124.48 1.39,4.74 2.37,8.31 3.47,11.85 9.73,31.03 30.81,49.61 62.9,53.39 31.98,3.77 57.16,-9.25 73.94,-36.82 3.73,-6.13 7.71,-8.85 14.46,-8.74 12.52,0.22 25.04,0.26 38.81,0.39 -10.32,-12.94 -23.76,-20.5 -39.32,-25.01 l 0.07,-2.28 c 12.36,-1.12 24.74,-2.24 37.1,-3.37 l 0.89,-1.83 c -11.94,-5.72 -23.65,-11.98 -35.89,-16.94 -6.43,-2.61 -10.33,-5.58 -12.78,-12.53 -36.64,-103.9 -145.7,-162.39 -252.03,-134.99 -42.93,11.07 -79.91,32.68 -109.52,66.12 -1.85,2.1 -3.55,4.34 -5.32,6.52"
         style="fill:#ffffff;fill-opacity:1;fill-rule:nonzero;stroke:none"
         id="path148" /><path
         d="m 3622.74,3339.5 -390.35,-130.17 -130.15,390.35 390.35,130.16 130.15,-390.34"
         style="fill:#fabb1e;fill-opacity:1;fill-rule:nonzero;stroke:none"
         id="path150" /><path
         d="m 3288.81,3322.27 c 13.05,8.44 23.92,15.98 35.32,22.6 3.73,2.16 9.05,3.28 13.27,2.59 21.5,-3.48 42.44,-2.27 63.26,4.26 74.76,23.47 111.62,112.49 73.32,180.17 -26.49,46.81 -68.22,69.39 -121.7,64.19 -54.9,-5.32 -92.79,-36.21 -109.59,-88.62 -16.42,-51.24 -2.43,-95.89 37.17,-132.57 3.47,-3.2 5.96,-8.76 6.53,-13.51 1.48,-12.38 1.64,-24.92 2.42,-39.11 z m -23.66,-45.64 c -1.26,24.51 -2.68,47.21 -3.41,69.93 -0.25,7.38 -2.57,12.55 -7.89,17.9 -72.63,73.08 -50.28,198.11 43.07,242.46 85.84,40.77 184.05,-1.46 211.8,-91.1 22.76,-73.45 -18.17,-156.97 -90.29,-184.66 -24.61,-9.45 -49.83,-13 -76.11,-10.34 -4.57,0.46 -10.11,-1.08 -14.07,-3.53 -20.64,-12.84 -40.91,-26.27 -63.1,-40.66"
         style="fill:#ffffff;fill-opacity:1;fill-rule:nonzero;stroke:none"
         id="path152" /><path
         d="m 3279.98,3507.91 c 5.41,16.49 19.43,18.27 31.17,5.97 4.59,-4.81 5.87,-6.52 10.68,-12.15 7.23,-8.5 8.55,-15.39 3.58,-24.1 -3.61,-6.34 -1.78,-10.24 3.57,-14.36 16.64,-12.79 35.16,-20.38 56.11,-22.38 6.38,-0.61 9.84,1.16 12.28,7.37 7.62,19.37 7.86,19.28 28.58,16.82 2.38,-0.28 4.76,-0.6 7.15,-0.89 15.94,-2.01 22.14,-13.68 14.59,-28.3 -7.72,-14.93 -20.71,-22.08 -37.12,-23.29 -41.89,-3.08 -77.65,12 -109.85,37.38 -9.81,7.73 -18.19,16.61 -21.88,29 -2.51,11.76 -1.81,19.95 1.14,28.93"
         style="fill:#ffffff;fill-opacity:1;fill-rule:nonzero;stroke:none"
         id="path154" /><g
         id="g156"><g
           id="g158"
           clip-path="url(#clipPath162)"><path
             d="m 1481.09,-1590.1 h 715.64 c 0,0 -144.1,1671.4516 -138.48,1700.631 7.15,37.399 49.41,206.578 105.65,427.598 17.63,69.16 36.63,143.34 56.39,220.25 53.35,207.941 112.18,435.201 163.41,632.951 76.92,296.26 136.95,526.4 136.95,526.4 h -606.5 c 0,0 -70.68,-224.06 -159.75,-515.61 -145.17,-473.8 -339.13,-1125.901 -358.29,-1284.44 -31,-255.981 84.98,-1707.78 84.98,-1707.78"
             style="fill:#33535f;fill-opacity:1;fill-rule:nonzero;stroke:none"
             id="path164" /><path
             d="m 1923.59,212.691 c 23.48,103.457 58.53,204.829 89.05,306.368 62.03,206.32 124.57,412.5 187.2,618.641 31.33,103.06 62.71,206.12 94.41,309.08 16,51.98 31.98,103.98 48.26,155.89 15.93,50.78 34.04,101.14 48.42,152.39 5.84,20.85 9.04,9.4 1.55,-17.08 -15.09,-53.37 -29.99,-106.81 -45.56,-160.05 -30.82,-105.45 -61.88,-210.82 -93.05,-316.17 -62.04,-209.66 -124.92,-419.069 -187.74,-628.51 -31.5,-105 -63.2,-209.941 -94.73,-314.93 -15.07,-50.16 -29.82,-100.629 -38.68,-152.328 C 1923.47,112.051 1922.98,57.5 1926.4,3 c 6.86,-109.48 19.54,-218.82 29.66,-328.051 10.12,-109.469 20.25,-218.929 30.39,-328.39 20.16,-217.848 40.34,-435.689 59.95,-653.589 2.48,-27.62 4.9,-55.22 7.03,-82.88 0.7,-9.25 -13.27,-8.54 -14.25,0.35 -23.57,215.41 -41.65,431.529 -61.87,647.279 -20.13,214.679 -40.26,429.351 -60.32,644.0427 -5.04,53.8985 -10.77,107.89846 -10.81,162.0899 -0.04,50.2574 6.3,99.8474 17.41,148.8394"
             style="fill:#17282f;fill-opacity:1;fill-rule:nonzero;stroke:none"
             id="path166" /><path
             d="m 1983.01,1917.73 c 42.1,-325.74 122.36,-936.511 180.89,-1379.601 136.8,536.881 356.75,1379.601 356.75,1379.601 h -537.64"
             style="fill:#17282f;fill-opacity:1;fill-rule:nonzero;stroke:none"
             id="path168" /><path
             d="m 1933.76,1917.73 c 0,0 13.98,-290.18 80.41,-520.01 5.32,-19.01 11.1,-37.7 17.33,-55.64 0,0 69.16,-25.08 174.81,-89.83 0,0 6.99,-233.48 13.98,-493.871 7.76,-291.09 15.8,-615.77 14.13,-684.629 -6.07,-257.648 32.23,-1674.34 32.23,-1674.34 l 715.49,-2.89 c 0,0 -129.36,1582.0816 -128.44,1676.4683 1.37,151.7027 -34.66,822.2027 -62.48,1311.2017 -17.02,301.27 -31,533.54 -31,533.54 h -826.46"
             style="fill:#33535f;fill-opacity:1;fill-rule:nonzero;stroke:none"
             id="path170" /><path
             d="m 2700.09,1814.05 c 13.16,-399.18 27.13,-798.4 44.98,-1197.409 17.91,-400.379 42.05,-800.602 75.56,-1200 18.71,-223.129 36.35,-537.001 60.43,-759.621 0.16,-1.5 -2.12,-2.05 -2.32,-0.51 -52.1,395.959 -81.14,885.592 -106.76,1284.0798 C 2746.37,339.012 2729,738.109 2715.42,1137.1 c -7.69,225.71 -13.56,451.48 -20.31,677.21 -0.1,3.21 4.88,2.92 4.98,-0.26"
             style="fill:#17282f;fill-opacity:1;fill-rule:nonzero;stroke:none"
             id="path172" /><path
             d="m 2001.76,1359.38 c 71.24,-28.3 139.46,-66.94 204.54,-107.14 2.56,-1.58 0.63,-5.57 -2.14,-4.22 -69.03,33.54 -139.5,65.83 -206.59,103.13 -5.27,2.93 -1.28,10.4 4.19,8.23"
             style="fill:#17282f;fill-opacity:1;fill-rule:nonzero;stroke:none"
             id="path174" /><path
             d="m 1958.95,1680.37 c 5.7,-30.67 13.14,-61.04 19.76,-91.53 6.21,-28.6 10.79,-57.79 18.35,-86.07 7.34,-27.43 19.01,-52.57 40.09,-72.14 11.22,-10.44 23.58,-19.67 35.56,-29.23 6.44,-5.15 13.41,-10.09 20.12,-15.3 -0.88,4.04 -1.58,8.16 -2.31,12.34 -2.04,11.62 -4.01,23.27 -5.97,34.9 -4.33,25.84 -8.47,51.72 -12.42,77.62 -7.78,50.9 -14.95,102.33 -25.57,152.72 -0.44,2.06 2.65,2.85 3.18,0.8 12.67,-49.94 26.68,-99.34 37.72,-149.7 5.41,-24.7 24.74,-146.63 25.6,-155.27 0.88,-8.91 1.62,-17.85 1.94,-26.8 0.31,-8.83 2.06,-18.7 0.03,-27.38 -0.53,-2.22 -3.21,-1.86 -4.15,-0.36 l -0.13,-0.08 c -4.44,7.76 -5.54,17.91 -7.76,26.5 -2.23,8.69 -4.2,17.53 -5.76,26.38 -0.57,3.19 -1.02,6.46 -1.47,9.72 -12.01,7.3 -23.19,16.95 -34.41,25.08 -12.11,8.76 -24.44,17.31 -35.88,26.93 -21.92,18.47 -35.63,41.09 -43.79,68.43 -8.48,28.38 -11.09,58.33 -14.36,87.64 -3.88,34.65 -6.72,69.48 -11.55,104 -0.29,2.05 2.79,2.89 3.18,0.8"
             style="fill:#17282f;fill-opacity:1;fill-rule:nonzero;stroke:none"
             id="path176" /><path
             d="m 2068.39,2723.82 c -41,-326.8 -112.64,-874.89 -228.5,-919.24 -20.07,-7.67 -105.41,-24.6 -163.74,41.07 -98.34,110.7 -268.33,483.79 -315.84,603.82 -21.06,53.22 325.9,226.87 355.61,173.37 41.61,-74.92 85.29,-187.69 93.57,-183.94 13.83,6.27 37.42,145.42 130.12,340.8 115.17,242.76 144.02,65.6 128.78,-55.88"
             style="fill:#be5253;fill-opacity:1;fill-rule:nonzero;stroke:none"
             id="path178" /><path
             d="m 1259.6,2578.49 c 34.16,-73.38 162.72,-196.11 205.11,-213.79 42.41,-17.67 258.33,193.94 252.83,240.76 -5.49,46.82 -139.64,284.95 -213.65,321.6 -74.01,36.66 -279.69,-272.55 -244.29,-348.57"
             style="fill:#be5253;fill-opacity:1;fill-rule:nonzero;stroke:none"
             id="path180" /><path
             d="m 1701.83,2650.05 c 0,0 -7.13,105.04 17.85,194.36 21,75.1 60.67,184.25 20.71,197.06 -82.05,26.29 -180.88,-245.96 -180.88,-245.96 0,0 -24.32,-127.11 54.65,-160.35 49.54,-20.86 87.67,14.89 87.67,14.89"
             style="fill:#be5253;fill-opacity:1;fill-rule:nonzero;stroke:none"
             id="path182" /><path
             d="m 1482.04,2563.19 -121.73,21.46 62.14,352.5 154.04,-27.15 -94.45,-346.81"
             style="fill:#fabb1e;fill-opacity:1;fill-rule:nonzero;stroke:none"
             id="path184" /><path
             d="m 1576.46,2910 -35.99,-132.3 -58.47,-214.55 -121.73,21.45 62.14,352.56 154.05,-27.16"
             style="fill:#fabb1e;fill-opacity:1;fill-rule:nonzero;stroke:none"
             id="path186" /><path
             d="m 1412.94,2883.44 0.3,1.68 -0.3,-1.68 v 0"
             style="fill:#bbbdbb;fill-opacity:1;fill-rule:nonzero;stroke:none"
             id="path188" /><path
             d="m 1398.71,2802.68 v 0 l 14.23,80.76 v 0 l -14.23,-80.76"
             style="fill:#a7494a;fill-opacity:1;fill-rule:nonzero;stroke:none"
             id="path190" /><path
             d="m 1540.47,2777.7 -141.76,24.98 14.23,80.76 0.3,1.68 149.29,-26.31 -22.06,-81.11"
             style="fill:#f4ac12;fill-opacity:1;fill-rule:nonzero;stroke:none"
             id="path192" /><path
             d="m 1581.65,2855.44 -191.66,33.78 25.66,145.58 191.65,-33.78 -25.65,-145.58"
             style="fill:#fabb1e;fill-opacity:1;fill-rule:nonzero;stroke:none"
             id="path194" /><path
             d="m 1745,3031.59 -151.49,11.37 41.52,235.59 146.25,-41.11 -36.28,-205.85"
             style="fill:#fabb1e;fill-opacity:1;fill-rule:nonzero;stroke:none"
             id="path196" /><path
             d="m 1566.68,3338.7 -61.28,-347.68 -255.09,14.11 -618.47,-111.3 147.164,834.95 543.136,-316.14 244.54,-73.94"
             style="fill:#fabb1e;fill-opacity:1;fill-rule:nonzero;stroke:none"
             id="path198" /><path
             d="m 826.75,3289.89 c -40.844,-231.71 -134.32,-408.91 -208.805,-395.78 -74.476,13.12 -101.746,211.61 -60.91,443.32 40.848,231.71 134.328,408.91 208.809,395.78 74.476,-13.12 101.75,-211.6 60.906,-443.32"
             style="fill:#fabb1e;fill-opacity:1;fill-rule:nonzero;stroke:none"
             id="path200" /><path
             d="m 626.48,2949.14 c -2,0 -3.98,0.17 -5.949,0.52 -60.976,10.74 -81.019,186.21 -44.765,391.91 35.089,199.07 110.05,353.51 170.117,353.51 2,0 3.98,-0.17 5.945,-0.52 60.981,-10.74 81.02,-186.21 44.766,-391.91 -35.09,-199.07 -110.043,-353.51 -170.114,-353.51"
             style="fill:#d59814;fill-opacity:1;fill-rule:nonzero;stroke:none"
             id="path202" /><path
             d="m 778.598,3305.79 c -4.828,-27.39 -10.426,-53.91 -16.668,-79.29 -16.391,-9.19 -35.91,-12.9 -55.825,-9.39 -45.964,8.1 -76.695,51.98 -68.582,98.03 l 6.946,39.38 c 8.117,46.05 52,76.79 97.957,68.69 19.558,-3.45 36.465,-13.5 48.703,-27.36 -2.887,-29.03 -7.094,-59.24 -12.531,-90.06"
             style="fill:#fabb1e;fill-opacity:1;fill-rule:nonzero;stroke:none"
             id="path204" /><path
             d="m 1636.75,2948.01 -292.97,21.98 80.3,455.6 282.83,-79.51 -70.16,-398.07"
             style="fill:#fabb1e;fill-opacity:1;fill-rule:nonzero;stroke:none"
             id="path206" /><path
             d="m 1636.75,2948.01 -38.28,2.87 -195.03,14.64 -59.66,4.47 80.3,455.6 282.83,-79.51 -2.08,-11.8 -6.21,-35.24 -6.44,-36.55 -39.47,-223.97 -15.96,-90.51"
             style="fill:#d59814;fill-opacity:1;fill-rule:nonzero;stroke:none"
             id="path208" /><path
             d="m 803.168,3182.56 c 9.031,33.99 16.988,69.94 23.582,107.33 10.215,57.96 16.172,113.83 18.191,165.25 -0.253,-8.19 -0.632,-16.38 -0.851,-24.57 -1.32,-15.92 -2.176,-31.9 -3.883,-47.78 -1.969,-15.85 -3.359,-31.79 -5.809,-47.57 -2.507,-15.77 -4.648,-31.6 -7.468,-47.32 -6.539,-35.36 -14.211,-70.61 -23.762,-105.34"
             style="fill:#d59814;fill-opacity:1;fill-rule:nonzero;stroke:none"
             id="path210" /><path
             d="m 672.152,2945.64 c 25.582,19.2 43.965,45.88 59.645,73.21 15.758,27.49 28.121,56.8 38.863,86.58 21.309,59.69 36.43,121.55 47.274,184.09 11.339,62.42 19.343,125.61 20.148,189.03 0.922,31.7 -0.891,63.44 -4.926,94.86 -4.191,31.29 -10.441,62.96 -25.148,91.29 16.578,-27.43 23.863,-59.33 29.555,-90.62 5,-31.58 7.597,-63.59 7.527,-95.56 0.219,-7.8 0.09,-15.59 -0.149,-23.38 -2.019,-51.42 -7.976,-107.29 -18.191,-165.25 -6.594,-37.39 -14.551,-73.34 -23.582,-107.33 -7.395,-26.9 -15.922,-53.5 -25.914,-79.6 -11.649,-29.77 -24.871,-59.05 -41.598,-86.39 -17.101,-26.82 -36.617,-53.37 -63.504,-70.93"
             style="fill:#d59814;fill-opacity:1;fill-rule:nonzero;stroke:none"
             id="path212" /><path
             d="m 503.414,3737.2 c 17.371,-13.73 33.988,-28.25 50.488,-42.88 16.578,-14.56 32.618,-29.68 48.653,-44.8 15.875,-15.3 31.726,-30.61 47.05,-46.49 l 22.958,-23.83 c 7.402,-8.21 15.039,-16.17 22.234,-24.6 -8.754,6.79 -17.067,14.04 -25.617,21.05 l -24.883,21.81 c -16.578,14.56 -32.617,29.69 -48.641,44.83 -15.863,15.3 -31.718,30.61 -47.043,46.49 -15.394,15.79 -30.672,31.7 -45.199,48.42"
             style="fill:#17282f;fill-opacity:1;fill-rule:nonzero;stroke:none"
             id="path214" /><path
             d="m 626.445,3091.99 c -24.14,-6.28 -48.465,-11.48 -72.82,-16.52 -24.336,-5.15 -48.809,-9.53 -73.281,-13.9 -24.512,-4.15 -49.024,-8.26 -73.672,-11.62 l -36.981,-5 c -12.386,-1.31 -24.714,-2.95 -37.156,-3.96 12.051,3.24 24.215,5.84 36.317,8.79 l 36.503,7.75 c 24.336,5.14 48.805,9.52 73.282,13.88 24.511,4.13 49.023,8.25 73.679,11.6 24.629,3.46 49.286,6.76 74.129,8.98"
             style="fill:#17282f;fill-opacity:1;fill-rule:nonzero;stroke:none"
             id="path216" /><path
             d="m 168.492,3178.67 c 36.488,2.87 73.004,4.65 109.52,6.26 36.515,1.73 73.047,2.68 109.582,3.61 36.539,0.71 73.078,1.39 109.629,1.3 l 54.84,-0.18 c 18.285,-0.42 36.562,-0.5 54.851,-1.23 -18.242,-1.54 -36.496,-2.43 -54.746,-3.67 l -54.77,-2.61 c -36.519,-1.72 -73.05,-2.67 -109.585,-3.6 -36.54,-0.69 -73.075,-1.37 -109.629,-1.27 -36.551,-0.01 -73.11,0.14 -109.692,1.39"
             style="fill:#17282f;fill-opacity:1;fill-rule:nonzero;stroke:none"
             id="path218" /><path
             d="m 299.336,3729.91 c 31.234,-20.05 61.828,-41 92.32,-62.07 30.563,-20.98 60.664,-42.61 90.762,-64.23 29.961,-21.82 59.906,-43.66 89.402,-66.12 l 44.223,-33.71 c 14.523,-11.54 29.254,-22.8 43.602,-34.58 -15.68,9.95 -30.977,20.42 -46.473,30.6 l -45.856,31.46 c -30.558,20.99 -60.664,42.62 -90.753,64.25 -29.958,21.83 -59.907,43.66 -89.395,66.12 -29.555,22.38 -59.02,44.89 -87.832,68.28"
             style="fill:#17282f;fill-opacity:1;fill-rule:nonzero;stroke:none"
             id="path220" /><path
             d="m 621.563,3329.37 c -42.446,5.84 -84.692,12.75 -126.911,19.83 -42.218,7.06 -84.269,15 -126.418,22.45 -42,8.26 -84.074,16.08 -125.996,24.73 l -62.847,13.17 c -20.879,4.75 -41.828,9.16 -62.653,14.2 21.246,-2.81 42.367,-6.27 63.555,-9.38 l 63.359,-10.43 c 42.219,-7.08 84.278,-14.99 126.418,-22.47 41.993,-8.27 84.075,-16.07 125.989,-24.74 41.925,-8.66 83.816,-17.47 125.504,-27.36"
             style="fill:#17282f;fill-opacity:1;fill-rule:nonzero;stroke:none"
             id="path222" /><path
             d="m 1606.4,2847.82 c -4.63,-42.63 -52.22,-12.77 -52.22,-12.77 0,0 58.14,-59.49 36.38,-101.59 -21.1,-40.53 -77.32,-2.44 -81.38,0.24 3.05,-3.17 55.05,-59.23 28.82,-99.29 -27.3,-41.61 -77.17,6.32 -80.38,9.43 1.94,-3.9 26.69,-55.91 -0.16,-81.81 -46.17,-44.48 -113.11,86.75 -163.12,100.68 0,0 -33.27,-82.04 -34.74,-84.22 0,0 -66.25,123.55 -43.7,189.95 11.89,35 46.86,30.83 46.86,30.83 0,0 -25.76,37.48 -6.1,69.66 10.13,16.5 45.54,14.96 45.54,14.96 0,0 -19.38,30.87 -0.1,58.42 15.31,22.03 48.44,17.06 48.44,17.06 0,0 -4.85,38.27 18.1,55.7 46.22,35.24 247.59,-75.96 237.76,-167.25"
             style="fill:#be5253;fill-opacity:1;fill-rule:nonzero;stroke:none"
             id="path224" /><path
             d="m 1355.9,2959.39 0.38,1.15 c 75.15,-20.41 151.45,-65.86 200.64,-126.83 1.61,-2 -0.94,-5.49 -3.13,-3.62 -62.72,53.15 -122.61,95.31 -197.89,129.3"
             style="fill:#17282f;fill-opacity:1;fill-rule:nonzero;stroke:none"
             id="path226" /><path
             d="m 1301.42,2884.86 c -0.82,0.36 -0.22,1.73 0.71,1.46 77.32,-21.44 161.86,-75 210.28,-151.96 1.66,-2.64 0.5,-6.67 -1.64,-3.78 -36.07,48.73 -141.42,124.03 -209.35,154.28"
             style="fill:#17282f;fill-opacity:1;fill-rule:nonzero;stroke:none"
             id="path228" /><path
             d="m 1459.15,2637.31 c -49.28,71.99 -116.68,120.95 -193.13,161.28 -0.99,0.52 -0.15,1.87 0.8,1.66 42.78,-9.53 88.83,-40.32 122.63,-67.31 32.38,-25.85 56.41,-55.68 72.22,-93.91 0.61,-1.48 -1.47,-3.26 -2.52,-1.72"
             style="fill:#17282f;fill-opacity:1;fill-rule:nonzero;stroke:none"
             id="path230" /><path
             d="m 1555.64,2835.13 c 1.93,-2.4 -3.71,-2.58 -1.85,-5.04 7.81,-10.37 49.49,-76.76 31.27,-97.97 -14.63,-16.98 -47.58,-9.08 -59.05,-1.09 l -28.84,20.1 20.1,-28.91 c 8.78,-12.63 16.26,-27.19 20.42,-41.89 4.19,-14.67 4.46,-30.39 -3.12,-41.95 -7.69,-12.24 -20.68,-18.08 -34.3,-13.87 -13.61,3.59 -27.01,13.45 -37.51,24.02 l -29.35,29.57 17.98,-37.37 c 4.88,-10.13 8.81,-21.57 10.92,-32.73 2.04,-11.15 2.27,-22.78 -1.9,-32.08 -4.05,-9.13 -13.15,-16.16 -22.71,-16.21 -10.06,-0.21 -20.88,5.41 -30.59,11.73 -19.68,13.15 -36.79,30.7 -54.61,47.25 -8.88,8.36 -17.77,16.78 -27.08,24.77 -9.35,7.73 -19.14,16 -31.08,19.25 11.46,-4.44 20.05,-13.49 28.8,-21.74 8.57,-8.58 16.74,-17.58 24.95,-26.6 16.42,-18.04 33.15,-36.02 53.28,-51.19 10.21,-7.14 21.56,-14.54 36.23,-15.23 15.15,-0.59 28.61,9.72 34.43,22.63 6,13.15 5.47,27.11 3.43,39.75 -2.28,12.82 -6.12,24.7 -11.62,36.62 l -11.36,-7.81 c 12.32,-12.59 25.94,-23.44 44.04,-28.82 8.91,-2.61 19.57,-2.56 28.79,1.56 9.29,4.1 16.18,11.01 21.21,19.02 10.38,16.68 8.92,36.82 3.97,53.11 -5.11,16.75 -13.07,31.62 -23.17,45.72 l -8.75,-8.81 c 14.93,-9.66 50.81,-22.5 76.81,0.97 29.32,35.66 -28.34,101.88 -39.74,113.24"
             style="fill:#17282f;fill-opacity:1;fill-rule:nonzero;stroke:none"
             id="path232" /><path
             d="m 1554.18,2835.05 c 8.81,-3.13 17.68,-5.35 25.72,-5.56 8.05,-0.26 14.71,3.06 18.21,8.71 3.63,5.59 4.14,14.18 3.78,22.71 -0.62,8.62 -1.71,17.64 -3.21,26.92 5.79,-7.47 10.12,-16.05 12.47,-25.48 2.24,-9.28 3.12,-20.25 -2.89,-30.55 -3.35,-4.88 -7.89,-8.66 -13.29,-10.71 -5.46,-1.88 -11.12,-2.01 -16.16,-0.87 -10.13,2.12 -18.32,7.85 -24.63,14.83"
             style="fill:#17282f;fill-opacity:1;fill-rule:nonzero;stroke:none"
             id="path234" /><path
             d="m 1333.14,2331.68 379.28,305.04 c 0,0 91.97,-189.98 97.36,-189.22 5.4,0.76 65.58,252.87 165.34,409.92 99.76,157.06 123.87,-13.36 102.67,-143.06 -21.2,-129.69 -121.03,-847.82 -210.74,-913.65 -89.71,-65.83 -174.02,16.55 -210.3,51.54 -50.01,48.22 -323.61,479.43 -323.61,479.43"
             style="fill:#fabb1e;fill-opacity:1;fill-rule:nonzero;stroke:none"
             id="path236" /><path
             d="m 1406.14,2297.44 c 11.88,12.2 131.11,105.12 157.44,124.75 26.35,19.64 52.73,39.23 79.14,58.8 27.28,20.21 54.1,42.13 82.92,60.12 1.28,0.79 2.62,-0.81 1.47,-1.87 -24.94,-23.01 -53.16,-43.05 -79.85,-63.98 -26.34,-20.67 -52.68,-41.33 -79.11,-61.89 -26.43,-20.54 -146.36,-109.86 -160.85,-117.84 -1.23,-0.68 -1.97,1.08 -1.16,1.91"
             style="fill:#17282f;fill-opacity:1;fill-rule:nonzero;stroke:none"
             id="path238" /><path
             d="m 1809.78,2447.5 c 10.51,-22.4 19.63,-45.35 28.4,-68.43 8.84,-23.07 16.76,-46.45 24.27,-69.98 7.25,-23.61 14.3,-47.3 19.95,-71.39 5.72,-24.04 10.85,-48.28 13.74,-72.86 -3.68,11.82 -6.71,23.75 -10.52,35.48 -3.31,11.85 -7,23.6 -10.63,35.35 l -22.07,70.42 -21.98,70.5 -10.85,35.33 c -3.34,11.89 -7.07,23.63 -10.31,35.58"
             style="fill:#17282f;fill-opacity:1;fill-rule:nonzero;stroke:none"
             id="path240" /><path
             d="m 1811.58,1665.1 c 16.41,-16.26 1024.85,37.08 1029.71,43.62 13.22,17.79 -347.42,1091.06 -583.84,1260.87 -50.85,36.52 -187.39,-12.4 -222.45,-47.58 -22,-22.08 -69.91,-161.58 -101.24,-276.95 -62.72,-230.95 -136.47,-965.67 -122.18,-979.96"
             style="fill:#ffffff;fill-opacity:1;fill-rule:nonzero;stroke:none"
             id="path242" /><path
             d="m 2055.76,2967.32 c -39.94,-29.66 -70.66,-183.07 20.78,-203.86 91.46,-20.78 176.25,123.66 188.72,170.32 12.47,46.66 -123.03,97.74 -209.5,33.54"
             style="fill:#fabb1e;fill-opacity:1;fill-rule:nonzero;stroke:none"
             id="path244" /><path
             d="m 2083.13,2784.46 c 56.7,-7.28 142.82,87.25 173.15,159.72 2.05,4.98 -10.35,53.74 -22.61,113.71 -7.3,36.43 -14.57,77.16 -18.51,114.8 l -230.08,-82.13 c 0,0 31.48,-76.47 37.97,-142.14 0.48,-5.49 0.47,-10.65 -0.01,-15.61 0,-0.72 -0.11,-1.61 -0.07,-2.6 -1.7,-29.85 5.35,-138.67 60.16,-145.75"
             style="fill:#be5253;fill-opacity:1;fill-rule:nonzero;stroke:none"
             id="path246" /><path
             d="m 2204.26,3168.79 c -2.42,-47.78 -20.54,-219.93 -156.93,-237.36 -8.76,-1.04 -16.85,-1.5 -24.35,-1.27 -0.11,1.04 0,1.96 0.12,2.66 0.46,4.96 0.46,10.15 0,15.57 -6.58,65.66 -38.08,142.16 -38.08,142.16 l 219.24,78.24"
             style="fill:#17282f;fill-opacity:1;fill-rule:nonzero;stroke:none"
             id="path248" /><path
             d="m 2219.01,3454.8 c 33.55,-81.36 12.37,-327.63 -42.1,-387.29 -78.94,-86.47 -219.68,-107.42 -296.05,-9.89 -74.03,94.53 -40.74,415 21.16,470.38 91.17,81.58 267.43,46.98 316.99,-73.2"
             style="fill:#be5253;fill-opacity:1;fill-rule:nonzero;stroke:none"
             id="path250" /><path
             d="m 2182.69,3070.44 v 0.09 -0.09"
             style="fill:#f68a93;fill-opacity:1;fill-rule:nonzero;stroke:none"
             id="path252" /><path
             d="m 2001.59,3284.68 1.15,-1.57 c -1.87,-16.56 -1.22,-35.83 13.34,-42.56 l -0.21,-0.91 c -18.11,4.06 -18.71,29.66 -14.28,45.04"
             style="fill:#17282f;fill-opacity:1;fill-rule:nonzero;stroke:none"
             id="path254" /><path
             d="m 2017.82,3300.8 c 26.85,-0.13 24.6,-53.84 -0.28,-53.71 -24.49,0.13 -22.23,53.83 0.28,53.71"
             style="fill:#17282f;fill-opacity:1;fill-rule:nonzero;stroke:none"
             id="path256" /><path
             d="m 1908.46,3288.09 -1.35,-1.42 c -0.17,-16.66 -3.16,-35.7 -18.44,-40.59 l 0.1,-0.94 c 18.47,1.81 22.2,27.15 19.69,42.95"
             style="fill:#17282f;fill-opacity:1;fill-rule:nonzero;stroke:none"
             id="path258" /><path
             d="m 1894.33,3306.08 c -26.66,3.15 -31.01,-50.42 -6.31,-53.34 24.32,-2.87 28.67,50.7 6.31,53.34"
             style="fill:#17282f;fill-opacity:1;fill-rule:nonzero;stroke:none"
             id="path260" /><path
             d="m 2040.04,3324.46 c -7.24,2.15 -13.56,5.34 -20.49,8.2 -7.83,3.24 -14.4,5 -19.31,12.35 -2.63,3.94 -1.18,10.76 2.41,13.67 8.36,6.8 18.92,5.22 28.5,1.71 10.4,-3.8 17.43,-9.39 23.09,-18.89 5.48,-9.21 -4.66,-19.86 -14.2,-17.04"
             style="fill:#17282f;fill-opacity:1;fill-rule:nonzero;stroke:none"
             id="path262" /><path
             d="m 1874.7,3333.99 c 7.5,0.9 14.26,2.99 21.58,4.64 8.26,1.88 15.02,2.51 21.09,8.93 3.27,3.45 2.98,10.4 -0.07,13.88 -7.09,8.1 -17.77,8.32 -27.81,6.47 -10.89,-2 -18.77,-6.33 -25.93,-14.75 -6.94,-8.15 1.26,-20.36 11.14,-19.17"
             style="fill:#17282f;fill-opacity:1;fill-rule:nonzero;stroke:none"
             id="path264" /><path
             d="m 2022.88,3128.94 c -4.14,-3.73 -8.35,-8.92 -14.4,-9.18 -5.81,-0.24 -12.49,2.66 -17.71,4.94 l -0.75,-0.82 c 4.05,-6.57 12.96,-10.95 20.73,-9.92 7.59,1 11.58,7.35 13.7,14.16 0.3,0.96 -0.96,1.37 -1.57,0.82"
             style="fill:#17282f;fill-opacity:1;fill-rule:nonzero;stroke:none"
             id="path266" /><path
             d="m 2007.49,3179.48 c -9.92,-14.05 -23.94,-21.37 -38.87,-23.62 -6.66,-1.05 -13.62,-0.98 -20.41,-0.07 -1.34,0.08 -2.67,0.29 -3.87,0.6 -1.21,0.2 -2.3,0.39 -3.62,0.72 -1.94,0.36 -2.94,2.01 -3.19,3.86 l 0.01,0.12 0.23,1.7 v 0.12 l 0.1,1.46 c 0.18,12.83 2.25,32.25 2.25,32.25 -4.78,-2.15 -29.09,-11.88 -28.43,-5.2 5.63,55.25 11.88,116.7 29.16,170.49 0.48,1.8 3.26,1.27 3.02,-0.55 -3.31,-53.32 -15.97,-105.69 -20.15,-159.2 7.73,2.57 20.38,7.41 27.07,6.99 1.8,-0.6 -4.65,-37.47 -4.27,-43.23 l 0.08,-0.62 c 21.4,-3.65 37.9,2.16 59.39,15.74 1.28,0.9 2.55,-0.28 1.5,-1.56"
             style="fill:#17282f;fill-opacity:1;fill-rule:nonzero;stroke:none"
             id="path268" /><path
             d="m 1957.74,3158.97 c 0,0 11.95,-14.67 27.61,-19.44 5.77,-1.78 11.93,-2.31 18.25,-0.3 13.01,4.06 12.79,16.15 9.9,26.38 -2.35,8.41 -6.62,15.55 -6.62,15.55 0,0 -18.4,-18.87 -49.14,-22.19"
             style="fill:#17282f;fill-opacity:1;fill-rule:nonzero;stroke:none"
             id="path270" /><path
             d="m 1985.35,3139.53 c 5.77,-1.78 11.93,-2.31 18.25,-0.3 13.01,4.06 12.79,16.15 9.9,26.38 -14.05,-2.09 -27.58,-12.31 -28.15,-26.08"
             style="fill:#f470b9;fill-opacity:1;fill-rule:nonzero;stroke:none"
             id="path272" /><path
             d="m 2224.31,3250.62 c 6.02,21.51 61.54,253.29 55.43,278.57 -5.58,23.01 -30.75,13.59 -31.12,14.91 -0.43,1.47 -1.15,22.29 -14.14,30.12 -11.47,6.92 -28.11,-0.51 -28.11,-0.51 0,0 -3.96,22.11 -17.87,28.11 -13.92,5.98 -27.17,-5.87 -27.17,-5.87 0,0 -4.62,21.28 -22.22,26.36 -17.6,5.08 -26.83,-10.2 -26.83,-10.2 0,0 -5.9,21.09 -20.42,25.16 -14.53,4.07 -27.04,-11.52 -27.04,-11.52 0,0 -8.02,19.2 -25.58,19.45 -17.98,0.27 -24.46,-19 -24.46,-19 0,0 -10.45,18.59 -26.99,19.06 -16.55,0.47 -22.28,-20.15 -22.28,-20.15 0,0 -6.75,18.41 -22.32,17.19 -15.56,-1.21 -19.26,-22.99 -19.26,-22.99 0,0 -8.73,20.23 -27.04,14.29 -28.12,-9.12 -31.65,-143.52 -38.07,-201.93 0,0 7.87,27.93 19.79,28.97 11.93,1.03 20.88,-17.98 43.12,-22.89 31.7,-7.02 84.47,30.19 128.17,20.84 42.46,-9.07 73.95,-53.69 89.26,-120.39 17.26,-75.18 70.85,-138.64 85.15,-87.58"
             style="fill:#17282f;fill-opacity:1;fill-rule:nonzero;stroke:none"
             id="path274" /><path
             d="m 1965.65,3280.45 c -5.81,-32.21 15.66,-63.16 47.88,-68.99 32.19,-5.85 63.15,15.67 68.98,47.87 5.81,32.22 -15.66,63.17 -47.88,68.99 -4.97,0.9 -9.91,1.14 -14.73,0.81 -26.44,-1.88 -49.32,-21.44 -54.25,-48.68 z m 46.25,-78 c -37.19,6.72 -61.97,42.45 -55.26,79.63 v 0 c 6.72,37.19 42.43,61.98 79.63,55.26 37.18,-6.72 61.97,-42.43 55.25,-79.64 -5.67,-31.44 -32.11,-54.03 -62.61,-56.18 -5.57,-0.39 -11.27,-0.11 -17.01,0.93"
             style="fill:#fabb1e;fill-opacity:1;fill-rule:nonzero;stroke:none"
             id="path276" /><path
             d="m 1843.39,3321.88 c -8.72,-10.92 -13.94,-25.8 -14.69,-41.91 -1.5,-32.69 16.02,-60.17 39.07,-61.24 23.14,-1.1 43.05,24.67 44.58,57.37 0.73,16.11 -3.09,31.4 -10.75,43.07 -7.39,11.21 -17.45,17.67 -28.33,18.17 -1.17,0.05 -2.33,0.04 -3.48,-0.04 -9.65,-0.68 -18.91,-6.06 -26.4,-15.42 z m 23.95,-112.31 c -28.09,1.31 -49.53,33.08 -47.78,70.83 0.83,18.02 6.74,34.78 16.67,47.19 10.26,12.84 23.52,19.59 37.47,18.91 13.89,-0.64 26.52,-8.56 35.54,-22.29 8.74,-13.27 13.09,-30.51 12.25,-48.54 -1.66,-35.72 -23.5,-64.19 -49.65,-66.04 -1.49,-0.11 -2.99,-0.12 -4.5,-0.06"
             style="fill:#fabb1e;fill-opacity:1;fill-rule:nonzero;stroke:none"
             id="path278" /><path
             d="m 1958.57,3274.05 6.21,6.74 c -9.98,9.2 -33.45,22.03 -51,4.92 l 6.4,-6.56 c 15.7,15.36 37.47,-4.27 38.39,-5.1"
             style="fill:#fabb1e;fill-opacity:1;fill-rule:nonzero;stroke:none"
             id="path280" /><path
             d="m 2262.79,3242.29 8.32,3.83 c -1.78,3.88 -18.01,38.05 -38.3,42.32 -18.96,3.93 -142.18,-1.88 -147.42,-2.13 l 0.44,-9.15 c 35.33,1.7 130.45,5.39 145.09,2.3 13.4,-2.81 27.55,-27.78 31.87,-37.17"
             style="fill:#fabb1e;fill-opacity:1;fill-rule:nonzero;stroke:none"
             id="path282" /><path
             d="m 2169.76,3259.09 c 0,0 48.94,82.53 85.99,65.64 37.04,-16.87 4.35,-133.63 -36.26,-152.31 -40.6,-18.69 -58.63,18.56 -58.63,18.56 l 8.9,68.11"
             style="fill:#be5253;fill-opacity:1;fill-rule:nonzero;stroke:none"
             id="path284" /><path
             d="m 2245.55,3291.5 0.3,-1.1 c -28.4,-14.06 -41.79,-42.38 -50.47,-71.35 7.9,11.5 19.32,18.32 34.61,9.05 l -0.67,-1.63 c -12.19,1.67 -20.7,-1.06 -28.08,-11.27 -5.22,-7.24 -8.51,-16.13 -12.02,-24.3 -1.18,-2.72 -6.02,-1.67 -5.24,1.42 l 0.19,0.69 c -3.54,37.29 21.56,91.72 61.38,98.49"
             style="fill:#17282f;fill-opacity:1;fill-rule:nonzero;stroke:none"
             id="path286" /><path
             d="m 2399.9,2899.41 c 326.34,-224.4 561.88,-576.22 584.55,-650.55 54.85,-179.86 136.8,-496.98 149.43,-639.4 4.67,-52.67 -401.13,-42.84 -407.88,13.29 -21.17,175.74 -96.75,558.11 -98.68,564.69 -13.52,46.24 -128.63,246.55 -247.11,464.48 -118.55,218.05 -117.66,341.94 19.69,247.49"
             style="fill:#be5253;fill-opacity:1;fill-rule:nonzero;stroke:none"
             id="path288" /><path
             d="m 2758.33,1067.77 c 41.46,-14.15 68.31,22.4 68.31,22.4 0,0 21.29,-27.76 54.54,-32.59 38.09,-5.54 63.47,51.75 63.47,51.75 0,0 27.36,-23.62 63,-25.2 36.98,-1.63 70.83,52.52 70.83,52.52 0,0 37.48,-7.84 69.35,12.74 35.09,22.64 52.4,134.51 51.81,197.49 -0.6,62.98 -61.26,241.07 -69.39,276.18 L 2726,1622.75 c 0,0 -77.71,-283.19 -66.5,-357.14 9.45,-62.3 52.3,-181.95 98.83,-197.84"
             style="fill:#be5253;fill-opacity:1;fill-rule:nonzero;stroke:none"
             id="path290" /><path
             d="m 2820.15,1092.95 c -25.94,63.83 -31.58,131.85 -41.08,199.42 -0.21,1.5 2.15,1.81 2.35,0.3 8.66,-67.32 30.57,-132.03 41.89,-198.87 0.31,-1.84 -2.46,-2.58 -3.16,-0.85"
             style="fill:#17282f;fill-opacity:1;fill-rule:nonzero;stroke:none"
             id="path292" /><path
             d="m 2939.36,1110.62 c -5.43,14.62 -6.03,30.97 -7.42,46.37 -1.49,16.59 -2.68,33.18 -3.63,49.81 -1.89,33.26 -3.03,66.58 -3.17,99.9 -0.01,1.49 2.24,1.86 2.34,0.31 1.94,-33.16 4.38,-66.27 7.72,-99.32 1.67,-16.53 3.48,-33.06 5.4,-49.57 1.78,-15.35 4.95,-31.42 3.28,-46.9 -0.26,-2.28 -3.7,-2.81 -4.52,-0.6"
             style="fill:#17282f;fill-opacity:1;fill-rule:nonzero;stroke:none"
             id="path294" /><path
             d="m 3078.36,1138.05 c -5.23,12.51 -3.96,28.74 -4.44,42.11 -0.55,15.17 -1.18,30.35 -1.9,45.52 -1.42,30.33 -2.87,60.66 -5.35,90.92 -0.13,1.52 2.21,1.83 2.34,0.32 2.68,-30.75 5.79,-61.44 8.19,-92.21 1.18,-15.1 2.28,-30.22 3.3,-45.33 0.87,-12.85 3.41,-28.82 -0.62,-41.32 l -1.52,-0.01"
             style="fill:#17282f;fill-opacity:1;fill-rule:nonzero;stroke:none"
             id="path296" /><path
             d="m 2706.68,1618.32 443.52,35.77 c 0,0 -97.7,477.72 -150.68,606.84 -52.99,129.12 -316.91,447.61 -592.1,636.33 -187.19,128.38 -175.71,18.58 -89.2,-151.48 86.53,-170.06 290.11,-559.06 299.71,-589.82 9.59,-30.75 88.75,-537.64 88.75,-537.64"
             style="fill:#fabb1e;fill-opacity:1;fill-rule:nonzero;stroke:none"
             id="path298" /><path
             d="m 2714.47,1709.81 c 16.59,3.85 167.11,17.7 199.87,20.01 32.78,2.31 65.57,4.56 98.36,6.77 33.87,2.29 68.29,6.26 102.25,5.83 1.52,-0.01 1.77,-2.08 0.24,-2.36 -33.42,-5.91 -67.99,-7.53 -101.76,-10.74 -33.33,-3.17 -66.66,-6.36 -100,-9.39 -33.34,-3.03 -182.51,-13.46 -199.03,-12.36 -1.39,0.09 -1.06,1.97 0.07,2.24"
             style="fill:#17282f;fill-opacity:1;fill-rule:nonzero;stroke:none"
             id="path300" /></g></g></g></g></svg>
