<?xml version="1.0" standalone="no"?>
<!DOCTYPE svg PUBLIC "-//W3C//DTD SVG 20010904//EN"
 "http://www.w3.org/TR/2001/REC-SVG-20010904/DTD/svg10.dtd">
<svg version="1.0" xmlns="http://www.w3.org/2000/svg"
 width="4167.000000pt" height="4167.000000pt" viewBox="0 0 4167.000000 4167.000000"
 preserveAspectRatio="xMidYMid meet">

<g transform="translate(0.000000,4167.000000) scale(0.100000,-0.100000)"
fill="currentColor" stroke="none">
<path d="M20750 35929 c-721 -33 -1499 -122 -2184 -249 l-208 -39 -31 31 c-18
17 -50 39 -72 49 -49 22 -152 25 -199 5 -52 -22 -111 -81 -134 -134 l-21 -48
-272 -67 c-1583 -393 -3143 -1048 -4506 -1893 l-152 -95 -36 40 c-51 56 -107
81 -183 81 -75 0 -116 -16 -170 -64 -80 -73 -104 -196 -56 -293 l21 -41 -171
-119 c-538 -374 -1115 -836 -1639 -1310 -236 -215 -855 -836 -1068 -1073 -469
-521 -912 -1076 -1269 -1592 l-115 -166 -65 -4 c-103 -6 -182 -57 -221 -143
-25 -55 -25 -156 1 -213 l20 -44 -103 -166 c-686 -1108 -1246 -2336 -1642
-3602 -62 -199 -98 -323 -200 -690 -11 -40 -16 -46 -52 -56 -87 -26 -138 -67
-172 -144 -42 -92 -22 -198 50 -273 l47 -49 -13 -56 c-68 -292 -178 -901 -229
-1267 -167 -1193 -198 -2483 -90 -3665 17 -187 63 -607 69 -630 2 -9 -14 -27
-42 -45 -30 -20 -57 -50 -76 -85 -79 -138 -5 -317 147 -360 l43 -12 18 -101
c367 -2155 1157 -4173 2353 -6016 l80 -124 -23 -31 c-54 -73 -59 -189 -11
-271 52 -87 166 -138 263 -116 57 13 24 47 271 -284 808 -1084 1770 -2080
2830 -2928 161 -129 211 -174 206 -186 -4 -9 -11 -36 -17 -61 -48 -215 198
-380 382 -256 l49 33 48 -37 c87 -65 440 -306 641 -435 1795 -1160 3873 -1966
5966 -2313 l168 -28 32 -64 c51 -104 142 -158 249 -148 67 7 137 46 173 96
l30 43 65 -5 c36 -3 151 -15 255 -26 569 -62 1032 -85 1705 -84 644 0 1036 18
1587 74 106 11 201 20 211 20 13 0 24 -13 36 -44 19 -49 71 -107 119 -133 23
-12 56 -18 113 -18 72 0 85 3 129 30 65 40 103 96 118 173 11 58 14 62 42 67
16 3 129 21 250 41 2171 352 4340 1207 6181 2435 l192 128 41 -21 c58 -29 154
-28 215 1 91 44 139 126 139 233 l0 68 128 95 c798 592 1622 1344 2306 2101
l155 172 58 -5 c77 -7 118 2 171 37 65 43 101 106 107 188 3 48 0 78 -12 105
l-15 38 123 152 c251 311 524 678 741 997 54 80 101 149 105 153 4 5 25 0 47
-11 100 -51 213 -33 292 46 52 53 71 101 71 184 0 84 -54 174 -128 214 -1 0
49 86 111 190 238 395 408 707 617 1129 404 817 720 1614 979 2473 l68 227 74
6 c154 11 241 101 241 246 1 102 -58 192 -150 230 -30 12 -33 17 -27 41 234
910 399 2034 451 3065 l7 137 34 16 c48 23 108 96 123 149 29 105 -13 221
-100 280 l-45 30 -2 330 c-1 181 -5 380 -9 440 l-6 110 43 12 c56 15 121 71
148 126 29 59 29 161 0 222 -34 72 -97 119 -179 134 -41 7 -34 -26 -71 361
-77 823 -233 1694 -447 2505 l-58 220 38 44 c38 43 68 120 68 170 0 112 -84
216 -195 242 l-50 11 -54 167 c-283 881 -700 1855 -1138 2659 l-94 173 36 33
c123 116 91 327 -61 402 -47 23 -63 26 -126 22 -40 -3 -80 -8 -88 -11 -11 -5
-43 39 -130 180 -547 889 -1236 1782 -2007 2598 l-180 189 31 50 c28 44 31 58
31 125 0 87 -16 129 -72 185 -52 51 -107 70 -194 64 -59 -5 -79 -11 -116 -37
l-44 -32 -137 130 c-888 838 -1965 1625 -3070 2246 l-193 109 8 30 c14 53 8
139 -12 181 -78 161 -297 193 -414 59 l-33 -36 -206 100 c-862 418 -1809 773
-2722 1021 -118 32 -189 57 -195 67 -60 97 -121 142 -207 151 -62 6 -122 -8
-169 -40 l-34 -23 -80 18 c-948 211 -1874 334 -2855 378 -259 11 -1141 11
-1400 -1z m1115 -89 c782 -22 1478 -88 2220 -210 204 -34 707 -131 703 -136
-6 -5 -6323 48 -6338 53 -21 8 13 15 353 73 779 132 1606 210 2362 223 77 2
185 4 240 5 55 1 262 -3 460 -8z m572 -421 c1305 -10 2417 -19 2473 -19 l100
0 0 -52 c1 -92 52 -177 135 -221 32 -17 56 -21 115 -20 41 1 86 3 99 5 22 3
48 -31 239 -310 l214 -313 -18 -35 c-10 -19 -21 -34 -23 -34 -14 0 -6668 1021
-6676 1025 -5 2 211 2 480 -1 270 -3 1557 -14 2862 -25z m-4507 -38 c48 -117
216 -172 336 -110 43 22 105 86 116 120 3 9 566 -101 2024 -395 1110 -223
2027 -410 2037 -414 10 -4 -2085 -273 -4655 -598 -2570 -325 -4674 -591 -4675
-590 -4 3 4780 2014 4793 2015 6 1 17 -12 24 -28z m-480 -60 c-12 -7 -3542
-1491 -4012 -1687 -71 -29 -128 -51 -128 -49 0 3 172 105 360 212 174 100 482
264 706 376 913 457 1844 815 2864 1101 192 54 242 65 210 47z m1867 -7 c-3
-3 -12 -4 -19 -1 -8 3 -5 6 6 6 11 1 17 -2 13 -5z m2747 -419 c1489 -228 2712
-415 2718 -415 6 0 9 -2 7 -5 -5 -4 -460 27 -1394 95 -275 20 -421 34 -424 42
-9 26 -76 89 -117 108 -36 18 -58 21 -117 18 -70 -3 -102 -16 -177 -69 -12 -9
-391 64 -1610 310 -877 177 -1599 323 -1605 326 -6 2 -5 4 1 4 6 1 1229 -186
2718 -414z m4883 -161 c788 -291 1424 -530 1413 -532 -20 -3 -2077 146 -2096
152 -5 2 -15 21 -22 43 -15 51 -73 118 -126 145 -44 23 -132 30 -197 15 l-35
-9 -84 124 c-46 68 -144 210 -217 315 l-132 192 22 45 c12 25 27 44 32 42 6
-2 654 -241 1442 -532z m-703 380 c347 -109 754 -253 1106 -394 204 -81 581
-242 577 -246 -2 -3 -1782 652 -1877 691 -72 29 -12 13 194 -51z m-2672 -654
c1127 -81 2170 -160 2179 -166 5 -3 9 -14 9 -25 0 -24 23 -72 57 -117 l24 -33
-221 -663 -221 -664 -53 -4 c-29 -2 -72 -14 -95 -26 l-42 -22 -1104 851
c-1017 783 -1105 853 -1105 880 0 16 4 29 9 29 5 0 258 -18 563 -40z m-1153
16 c-2 -2 -622 -264 -1377 -581 l-1374 -576 -48 45 c-64 60 -139 83 -219 67
-89 -18 -169 -84 -187 -154 -3 -16 -12 -30 -18 -33 -14 -5 -5725 92 -5730 97
-3 3 8752 1116 8948 1138 5 1 7 -1 5 -3z m132 -135 c39 -55 118 -93 193 -94
74 0 128 21 178 70 24 23 41 33 50 27 42 -26 2178 -1677 2178 -1684 0 -5 -4
-12 -10 -15 -9 -6 -5372 558 -5429 571 -13 3 -21 7 -18 10 2 3 636 270 1408
594 1214 510 1405 587 1414 574 6 -9 22 -33 36 -53z m4880 -166 c629 -47 1147
-85 1151 -85 4 0 13 -19 20 -42 8 -28 30 -61 63 -94 61 -62 115 -80 209 -70
l64 6 1233 -1292 c678 -711 1276 -1337 1328 -1392 53 -54 85 -93 71 -86 -24
13 -5322 3110 -5329 3116 -8 7 12 24 29 24 10 0 532 -38 1161 -85z m1368
-1542 c1417 -828 2581 -1510 2586 -1515 6 -5 -3 -4 -20 2 -16 7 -712 257
-1545 556 -833 300 -1534 552 -1556 560 -39 15 -42 19 -48 63 -7 56 -51 129
-96 161 -35 25 -109 50 -150 50 -78 0 -174 -56 -220 -128 l-15 -23 -116 12
-117 12 -11 37 c-14 48 -73 116 -125 142 -32 17 -58 22 -117 22 l-76 0 -133
210 c-174 273 -458 710 -687 1056 -141 212 -179 277 -171 288 6 7 18 10 26 7
8 -3 1174 -683 2591 -1512z m-2506 1136 c326 -490 797 -1221 797 -1235 0 -4
-13 -21 -29 -39 -16 -18 -31 -39 -33 -45 -3 -10 -168 5 -683 59 -374 39 -689
74 -701 76 -14 3 -27 20 -39 50 -17 45 -63 103 -97 121 -16 9 3 71 197 654
118 355 217 650 219 655 2 6 39 10 85 9 l82 0 202 -305z m3337 -179 c695 -416
1335 -871 1974 -1404 243 -202 530 -454 466 -409 -193 135 -2780 2000 -2790
2011 -21 21 67 -29 350 -198z m1231 -1057 l1545 -1113 -4 -35 c-16 -136 100
-266 240 -269 l59 -1 556 -930 c306 -511 558 -934 561 -940 9 -16 -42 29 -933
812 l-840 739 3 70 c5 87 -11 142 -56 194 -48 57 -104 84 -177 84 -33 1 -72
-2 -87 -7 -26 -7 -84 52 -1155 1175 -620 651 -1163 1221 -1208 1267 -44 46
-73 80 -64 75 9 -5 711 -510 1560 -1121z m-14627 667 c1628 -27 2961 -52 2964
-55 6 -6 450 154 -3481 -1249 l-3438 -1226 -33 25 c-18 14 -49 31 -68 37 l-35
13 308 1170 c170 644 312 1177 317 1185 5 8 23 17 40 21 48 10 121 57 145 94
l22 35 150 0 c83 0 1482 -23 3109 -50z m6191 -370 c1458 -154 2660 -283 2672
-285 16 -4 24 -15 29 -43 17 -93 87 -171 179 -197 30 -9 55 -21 55 -26 0 -12
580 -3448 586 -3475 4 -17 -3 -27 -30 -43 -36 -22 -36 -22 -63 -3 -16 10
-1414 979 -3108 2152 -1694 1173 -3081 2134 -3083 2135 -1 1 5 19 13 40 16 36
17 37 58 31 23 -3 1235 -132 2692 -286z m-3200 201 c-14 -13 -3263 -2809
-3567 -3068 -13 -12 -21 -12 -39 -2 -13 6 -53 12 -90 12 -115 0 -206 -69 -239
-180 -12 -40 -13 -41 -69 -48 -125 -15 -1336 -220 -1771 -299 -627 -114 -1441
-278 -1651 -331 -22 -5 -29 -1 -50 30 -13 20 -43 48 -65 63 l-42 28 176 511
175 511 83 -6 c71 -4 88 -2 128 18 98 47 159 164 139 265 -6 28 -9 52 -7 54 6
7 6878 2459 6894 2460 11 1 9 -4 -5 -18z m-6876 -1142 l-301 -1144 -54 -24
c-101 -44 -148 -128 -143 -251 l4 -77 -624 -722 c-343 -397 -630 -728 -638
-736 -8 -9 -33 -15 -59 -15 -84 0 -163 -51 -207 -135 -16 -29 -22 -59 -22
-112 l-1 -73 -896 -1012 -896 -1013 -63 -1 c-71 0 -115 -18 -167 -68 -60 -56
-88 -140 -73 -220 l8 -45 -404 -458 c-223 -252 -412 -465 -420 -473 -9 -8 20
37 63 101 2361 3472 5190 7626 5192 7624 2 -1 -133 -517 -299 -1146z m31 1088
c0 -1 -871 -873 -1937 -1937 -1065 -1064 -1919 -1910 -1897 -1880 973 1389
2261 2686 3694 3722 131 95 140 101 140 95z m6946 -31 c-3 -11 -218 -760 -478
-1664 -455 -1581 -474 -1643 -498 -1648 -75 -16 -145 -66 -176 -126 -10 -20
-22 -28 -41 -28 -27 0 -2265 256 -2319 265 -27 5 -33 12 -44 51 -7 25 -22 56
-32 70 -20 25 -20 25 4 44 12 10 820 705 1793 1543 1017 876 1776 1522 1783
1519 8 -3 11 -13 8 -26z m3380 -2121 c1705 -1181 3102 -2150 3107 -2154 4 -4
2 -22 -4 -39 -8 -23 -17 -32 -32 -32 -23 0 -7050 806 -7102 815 -26 4 -33 12
-49 58 -20 58 -89 132 -132 143 -22 6 -25 10 -19 33 7 30 896 3120 927 3224
l20 67 41 0 c23 0 60 9 82 19 22 11 45 18 51 16 6 -2 1406 -969 3110 -2150z
m-10376 1913 c-61 -90 -1271 -1867 -2688 -3950 -1417 -2083 -2578 -3786 -2579
-3784 -2 1 241 779 539 1728 l543 1726 56 -5 c132 -12 239 67 268 199 13 59
-1 133 -34 182 l-23 34 2010 2016 c1105 1109 2012 2016 2014 2016 2 0 -46 -73
-106 -162z m13985 -321 l680 -73 7 -24 c4 -14 10 -37 12 -51 11 -52 68 -122
125 -151 57 -30 144 -38 195 -19 24 10 29 3 179 -247 307 -512 496 -850 683
-1222 102 -202 121 -246 108 -253 -8 -5 -20 -5 -27 1 -7 5 -601 463 -1322
1017 -720 554 -1320 1017 -1332 1029 -16 16 -19 26 -12 44 4 12 12 22 16 22 4
-1 314 -33 688 -73z m572 -1087 l1330 -1024 -20 -40 c-29 -55 -34 -145 -12
-203 40 -104 156 -173 265 -159 l47 6 32 -152 c94 -451 481 -2544 481 -2604 0
-12 -13 -27 -32 -39 -18 -10 -42 -29 -53 -40 l-20 -22 -316 177 c-607 340
-1426 786 -2079 1132 l-215 114 -5 75 c-10 143 -74 213 -222 244 -18 3 -30 13
-33 28 -8 36 -585 3462 -585 3475 0 7 6 12 13 12 7 0 28 11 47 24 19 14 38 24
41 23 4 -1 605 -463 1336 -1027z m789 944 c40 -6 42 -7 48 -50 27 -201 274
-287 416 -144 25 25 50 53 55 62 9 16 173 -41 1685 -585 l1675 -602 -3 -34
c-5 -50 17 -126 49 -170 60 -84 183 -122 283 -88 45 15 47 15 60 -6 8 -12 757
-1304 1665 -2871 l1651 -2849 -25 -51 c-18 -37 -25 -66 -25 -111 0 -100 43
-169 144 -230 16 -9 13 -65 -38 -735 -70 -907 -60 -825 -97 -841 -28 -11 -33
-10 -54 12 -13 13 -1751 2091 -3863 4616 l-3840 4593 21 51 22 51 65 -7 c36
-3 84 -8 106 -11z m3728 -4942 c2038 -2438 3706 -4436 3706 -4440 0 -4 -9 -25
-20 -47 -14 -27 -20 -59 -20 -105 0 -86 34 -157 96 -202 32 -23 44 -38 44 -57
0 -33 -198 -2618 -206 -2688 -5 -49 -7 -53 -32 -53 -26 0 -34 14 -147 253
-484 1026 -900 1883 -1337 2757 -394 790 -607 1197 -805 1544 l-125 218 35 37
c55 57 71 97 71 176 0 52 -6 81 -22 111 -24 47 -81 100 -128 120 -49 21 -151
17 -203 -6 -24 -11 -45 -19 -46 -18 -1 2 -819 1145 -1817 2541 l-1816 2538 20
52 c57 149 -39 312 -198 336 l-43 6 -139 280 c-139 278 -326 621 -496 910 -49
83 -98 166 -109 185 l-20 35 25 -25 c14 -14 1693 -2020 3732 -4458z m1831
3283 c656 -727 1252 -1524 1739 -2324 l88 -145 -58 51 c-33 28 -221 193 -419
367 l-360 317 3 73 c5 92 -22 161 -82 212 -44 38 -131 68 -177 62 -28 -4 -35
5 -541 851 -281 471 -518 867 -526 881 -20 35 141 -131 333 -345z m-298 -727
l851 -748 -23 -43 c-92 -166 27 -367 218 -367 32 0 73 7 92 15 l35 14 521
-872 c287 -480 524 -875 526 -879 2 -4 -7 -24 -21 -45 -81 -123 -38 -291 91
-353 50 -24 52 -26 57 -75 12 -103 86 -1516 81 -1525 -4 -6 -12 -10 -18 -10
-7 0 -745 1265 -1642 2812 -896 1546 -1634 2818 -1639 2826 -6 11 -5 13 5 6 8
-4 397 -345 866 -756z m-21201 -94 c-96 -280 -178 -517 -181 -526 -5 -12 -18
-18 -41 -18 -101 0 -205 -100 -220 -213 l-6 -44 -146 -38 c-80 -21 -202 -55
-271 -75 l-125 -38 -32 25 -33 25 136 156 c74 87 350 405 612 709 262 303 477
550 479 548 2 -1 -76 -232 -172 -511z m18591 -2309 c940 -1314 1712 -2396
1717 -2403 4 -8 -56 36 -135 96 -481 366 -1316 898 -2346 1497 -212 123 -222
131 -216 155 4 14 7 50 7 81 -1 110 -83 208 -195 233 l-53 12 -22 125 c-208
1159 -344 1892 -433 2332 -32 158 -52 282 -46 275 7 -7 781 -1088 1722 -2403z
m-15032 2153 c4 -13 18 -38 32 -56 l25 -33 -1063 -2893 -1064 -2894 -58 -5
c-34 -3 -80 -16 -112 -32 l-54 -28 -778 470 -778 471 -6 55 c-9 78 -68 172
-120 189 -7 2 29 660 105 1908 64 1048 116 1917 116 1932 0 24 5 28 55 38 34
7 72 24 97 43 51 39 98 124 98 177 0 28 5 40 18 44 95 27 950 201 1432 291
619 115 1949 341 2022 344 19 1 28 -5 33 -21z m1677 -120 l1167 -133 6 -35 c3
-19 16 -55 27 -79 15 -32 18 -48 11 -60 -5 -9 -517 -851 -1137 -1872 -968
-1595 -1130 -1856 -1147 -1852 -10 3 -21 15 -24 27 -4 18 -336 3938 -335 3959
0 4 12 7 28 7 66 1 156 68 189 142 11 25 22 37 32 34 9 -2 541 -64 1183 -138z
m-1522 -54 c0 -15 74 -902 165 -1971 91 -1069 165 -1953 165 -1966 0 -18 -10
-26 -52 -41 -169 -59 -220 -281 -95 -407 l26 -25 -610 -1005 c-472 -776 -614
-1003 -627 -1000 -9 2 -56 4 -103 5 -77 1 -90 -2 -126 -26 l-40 -26 -364 219
-364 220 0 72 c0 61 -4 79 -27 119 -16 25 -41 57 -58 70 l-30 23 1049 2855
c577 1570 1054 2867 1060 2883 13 34 31 35 31 1z m6770 -549 c1944 -223 3545
-408 3557 -410 14 -3 24 -15 28 -35 4 -17 22 -51 41 -76 l34 -45 -1261 -2069
c-1237 -2029 -1262 -2070 -1288 -2062 -52 14 -145 7 -187 -15 l-41 -21 -2261
2521 c-2002 2232 -2260 2523 -2247 2537 8 9 21 33 30 53 13 30 19 36 38 32 12
-2 1613 -187 3557 -410z m-1470 -2250 c1228 -1369 2246 -2504 2262 -2521 29
-31 30 -32 13 -64 -9 -18 -18 -58 -20 -89 l-3 -56 -204 -58 c-944 -269 -2940
-892 -5486 -1711 -400 -129 -768 -248 -818 -264 l-90 -29 -22 33 c-12 18 -42
45 -67 59 -36 22 -44 31 -39 48 3 12 465 1620 1027 3572 l1022 3550 77 5 c43
3 81 9 85 13 4 4 12 6 19 5 6 -2 1016 -1123 2244 -2493z m-3555 -1124 c-558
-1938 -1017 -3526 -1020 -3529 -3 -3 -5 0 -5 7 0 6 -56 674 -125 1484 -69 809
-125 1483 -124 1497 0 18 13 34 42 55 59 42 97 120 97 197 0 60 -18 118 -46
149 -9 10 -14 24 -12 32 3 15 2201 3637 2205 3633 1 -1 -454 -1588 -1012
-3525z m-5870 3339 c3 -11 20 -34 37 -51 l31 -31 -15 -46 c-8 -26 -241 -704
-518 -1507 -276 -803 -518 -1507 -537 -1563 l-35 -104 -42 6 c-62 10 -140 -11
-190 -49 l-43 -32 -641 387 c-353 213 -648 393 -656 399 -8 7 -16 38 -18 71
-3 47 -11 70 -37 106 -27 39 -30 48 -19 62 56 71 1711 1982 1717 1982 4 0 16
-10 27 -21 57 -64 186 -80 280 -34 94 46 141 135 131 247 l-5 58 81 25 c162
49 402 114 424 114 13 1 24 -7 28 -19z m23615 -752 l65 -58 0 -77 c0 -60 6
-87 22 -118 30 -57 82 -103 139 -124 46 -18 49 -21 52 -57 18 -206 36 -634 27
-634 -8 0 -946 1553 -1014 1678 -10 20 382 -318 709 -610z m-23606 -1328 c-62
-1015 -113 -1853 -114 -1862 0 -12 -13 -19 -47 -24 -27 -4 -65 -13 -86 -22
l-38 -15 -304 184 c-293 176 -304 184 -297 208 12 44 5 136 -13 172 -9 19 -29
46 -42 61 l-26 27 531 1543 c556 1618 543 1581 547 1576 1 -2 -49 -833 -111
-1848z m16222 878 l1304 -713 0 -63 c0 -126 71 -214 200 -247 l44 -11 28 -160
c66 -373 418 -2401 440 -2528 l23 -139 -25 -16 c-44 -28 -90 -84 -102 -123
-10 -36 -14 -38 -42 -33 -40 6 -739 74 -1296 125 -1683 153 -2864 234 -3810
260 -325 9 -738 6 -797 -6 -18 -3 -24 3 -33 34 -7 20 -23 51 -35 67 l-23 31
1265 2074 1265 2075 73 -3 c61 -3 80 0 121 21 27 14 58 34 68 46 11 12 21 21
24 21 2 0 591 -321 1308 -712z m-20079 -1039 l-532 -1694 -54 -17 c-137 -44
-206 -169 -171 -313 l13 -53 -253 -285 -252 -285 -33 19 -33 20 20 72 c225
822 443 1454 745 2162 226 529 519 1117 806 1620 120 211 269 457 273 453 2
-3 -236 -767 -529 -1699z m28123 526 c279 -553 494 -1044 705 -1610 61 -164
225 -640 225 -654 0 -7 -191 311 -702 1166 l-330 553 28 32 c44 52 64 107 64
174 0 126 -73 218 -196 244 l-50 11 -12 242 c-7 133 -15 276 -18 317 l-5 75
62 -110 c34 -60 137 -258 229 -440z m-6008 -616 c1242 -726 2064 -1264 2505
-1641 86 -73 91 -81 83 -104 -6 -14 -10 -51 -10 -83 0 -104 66 -197 166 -233
31 -11 34 -16 34 -53 0 -22 32 -627 70 -1345 39 -717 70 -1321 70 -1342 0 -33
-3 -38 -24 -38 -12 0 -44 -11 -70 -25 l-47 -25 -559 410 -558 410 5 75 c5 67
3 80 -21 129 -15 31 -44 69 -64 86 -40 33 -116 60 -167 60 -25 0 -34 6 -47 33
-58 121 -1708 3818 -1708 3826 0 10 28 30 42 31 3 0 138 -77 300 -171z m6376
-895 l554 -926 -31 -32 c-64 -66 -87 -166 -59 -260 23 -77 135 -166 211 -166
21 0 26 -108 32 -830 3 -333 8 -719 11 -857 6 -212 5 -253 -7 -253 -13 1 -145
267 -923 1852 l-180 368 42 36 c63 53 86 104 86 189 0 52 -6 81 -22 111 -37
71 -125 134 -187 134 -14 0 -28 6 -30 13 -7 17 -93 1530 -88 1540 18 34 64
-37 591 -919z m-5918 -989 c447 -1001 818 -1830 823 -1843 8 -17 7 -26 -4 -37
-12 -12 -75 31 -464 316 -247 182 -458 336 -467 343 -17 12 -17 16 -2 60 50
147 -39 299 -192 328 l-60 12 -83 480 c-153 890 -372 2141 -378 2161 -3 13 -2
16 4 10 5 -5 376 -829 823 -1830z m-20721 1143 l634 -383 1 -85 c1 -74 5 -91
30 -134 18 -31 46 -59 77 -79 28 -17 48 -35 46 -41 -2 -6 -681 -1981 -1508
-4388 -902 -2626 -1505 -4367 -1507 -4350 -2 22 302 5204 310 5282 3 22 9 26
54 31 69 9 118 34 163 85 43 49 61 100 61 171 0 95 -75 198 -163 225 -27 8
-36 16 -33 27 3 9 213 885 466 1946 254 1062 463 1938 466 1948 4 13 16 17 48
17 55 0 139 42 173 87 14 18 31 32 37 29 6 -2 296 -177 645 -388z m-1024 320
c31 -20 34 -27 29 -53 -32 -151 -936 -3911 -942 -3916 -4 -4 -24 -12 -44 -19
-21 -6 -58 -31 -82 -55 -106 -103 -96 -277 21 -374 l37 -31 -129 -2179 c-72
-1199 -132 -2178 -134 -2175 -3 3 -79 5559 -92 6808 l-4 299 54 14 c56 14 67
20 114 62 89 80 100 231 24 333 l-24 33 564 638 c311 350 567 637 569 637 2 0
20 -10 39 -22z m2374 -1135 c152 -91 281 -171 288 -177 9 -8 7 -26 -10 -75
-18 -56 -19 -70 -9 -120 21 -100 101 -183 192 -199 l45 -8 -3 -74 c-4 -101
-420 -6986 -427 -7076 l-6 -71 -51 -6 c-121 -15 -216 -121 -218 -244 0 -40 -2
-43 -37 -52 -21 -5 -755 -195 -1630 -421 l-1593 -411 -40 33 c-22 18 -40 37
-40 41 0 22 3075 8950 3084 8952 76 20 98 28 127 49 19 13 38 25 43 25 5 1
133 -74 285 -166z m5147 3 c2 -2 254 -2988 254 -3003 0 -6 -8 -14 -19 -18 -10
-3 -34 -21 -53 -39 l-35 -34 -699 422 -699 422 -5 75 c-4 56 -12 86 -32 120
l-27 45 607 1000 c334 549 611 1005 616 1012 6 10 20 11 50 7 22 -4 42 -8 42
-9z m-3639 -915 c621 -375 757 -462 754 -477 -2 -11 -4 -53 -4 -94 -2 -87 19
-137 78 -189 l37 -32 -345 -937 c-189 -515 -683 -1870 -1098 -3009 -415 -1140
-755 -2063 -757 -2050 -1 12 94 1618 213 3569 118 1951 215 3552 215 3557 0 5
20 21 44 35 25 14 54 40 66 56 12 17 25 30 30 30 4 0 349 -206 767 -459z
m23880 -1221 c322 -883 588 -1613 591 -1624 3 -13 0 -17 -11 -15 -8 2 -261
299 -562 659 -301 360 -555 663 -563 673 -14 15 -13 22 10 65 33 62 41 117 24
180 -23 92 -89 158 -178 183 l-37 10 5 47 c3 26 29 366 59 756 30 390 55 712
56 715 1 10 9 -13 606 -1649z m-29248 1621 c11 -7 -76 -570 -505 -3265 -286
-1791 -522 -3256 -525 -3256 -19 0 -91 763 -121 1275 -16 289 -16 1281 0 1570
54 933 162 1747 344 2591 l30 141 59 6 c155 14 258 159 217 306 -8 31 -17 61
-19 67 -4 10 488 574 500 574 3 0 12 -4 20 -9z m25724 -128 c365 -622 1103
-2095 2088 -4171 l230 -483 -32 -32 c-64 -63 -86 -164 -57 -260 12 -40 73
-114 112 -134 18 -10 8 -56 -183 -901 -110 -489 -201 -893 -201 -897 0 -3 -14
-5 -32 -3 l-31 3 -873 1894 -874 1894 27 31 c107 127 74 319 -68 391 -47 24
-49 27 -49 68 0 23 -31 632 -70 1352 -71 1326 -73 1375 -66 1375 2 0 38 -57
79 -127z m-25613 -4253 c28 -2120 50 -3875 48 -3899 -3 -42 -5 -45 -37 -53
-111 -29 -190 -146 -178 -263 14 -134 116 -225 254 -225 l49 0 609 -2167 c334
-1193 612 -2181 616 -2196 17 -61 -19 -15 -144 179 -459 716 -873 1496 -1213
2287 -477 1108 -825 2273 -1039 3476 -19 107 -35 200 -35 207 0 7 16 20 35 30
42 20 102 84 121 130 20 47 17 150 -5 199 -16 36 -75 99 -113 121 -13 8 50
418 468 3039 266 1667 489 3062 496 3100 l13 70 2 -90 c2 -49 26 -1825 53
-3945z m29960 3503 c84 -360 175 -838 230 -1208 75 -504 143 -1166 122 -1187
-6 -6 -14 -10 -16 -7 -3 3 -79 155 -170 338 l-164 333 41 36 c118 107 105 300
-28 390 -26 18 -64 35 -85 38 l-37 6 -6 287 c-4 157 -9 556 -12 886 l-5 600
45 -170 c24 -93 63 -247 85 -342z m-12285 326 c959 -34 2439 -146 4355 -329
504 -48 491 -46 502 -85 5 -20 3 -34 -5 -42 -6 -6 -1609 -1128 -3562 -2494
-1952 -1365 -3562 -2490 -3577 -2500 -25 -18 -27 -18 -57 -2 -17 10 -31 25
-31 33 0 27 1022 5205 1028 5211 4 3 29 11 55 17 84 21 152 82 178 159 6 18
11 34 12 35 1 1 81 4 177 8 200 7 521 4 925 -11z m11594 -857 l390 -793 -32
-51 c-27 -42 -32 -63 -35 -124 -3 -60 0 -81 18 -118 22 -47 75 -99 128 -128
l32 -17 0 -217 c0 -120 -2 -215 -4 -213 -5 5 -896 2448 -896 2457 0 3 2 3 5 1
2 -3 180 -362 394 -797z m-13139 738 c0 -4 -3166 -3547 -3333 -3729 -37 -40
-42 -43 -61 -31 -57 36 -84 45 -146 45 -79 -1 -128 -22 -187 -83 l-42 -43
-1441 837 c-1291 751 -1441 840 -1435 859 4 11 9 43 12 71 l5 52 67 20 c36 11
451 144 921 295 2646 852 4589 1457 5475 1706 126 35 141 37 153 23 6 -9 12
-18 12 -22z m100 -77 c-1 -10 -231 -1187 -513 -2617 l-512 -2598 -58 -18 c-31
-10 -73 -30 -92 -44 -18 -14 -37 -26 -40 -26 -4 0 -503 288 -1110 641 l-1103
641 20 46 c20 45 21 50 5 190 -1 17 375 444 1688 1912 930 1039 1696 1889
1703 1890 6 0 12 -8 12 -17z m6382 -354 c-3 -13 -3560 -7923 -3606 -8018 -20
-42 -23 -43 -74 -47 -61 -5 -125 -34 -163 -75 l-26 -28 -1619 1421 c-891 781
-1637 1437 -1658 1456 l-39 35 17 46 c21 59 21 129 -1 183 -16 40 -16 42 3 54
10 7 1621 1134 3579 2503 1958 1370 3567 2489 3575 2488 8 -2 14 -10 12 -18z
m788 -337 c250 -184 456 -335 457 -336 1 -1 -5 -24 -13 -51 -30 -98 -1 -202
76 -267 50 -43 106 -61 182 -56 l60 3 727 -1625 c400 -894 733 -1640 740
-1658 14 -32 13 -33 -28 -68 -99 -85 -118 -222 -45 -329 14 -21 23 -43 21 -49
-3 -6 -764 -1122 -1692 -2481 -1428 -2090 -1690 -2470 -1708 -2468 -12 2 -45
5 -73 9 -82 10 -181 -33 -221 -97 l-18 -28 -842 432 -841 432 5 65 c8 95 -9
143 -71 205 l-52 52 1306 4219 c718 2320 1318 4258 1333 4305 l27 87 58 4 c32
2 76 13 98 25 21 11 43 18 49 15 5 -4 215 -156 465 -340z m-16553 79 l320
-194 -14 -46 c-26 -83 -3 -172 60 -239 31 -32 31 -33 15 -60 -857 -1413 -3164
-5209 -3165 -5208 -2 2 1493 4108 1860 5106 l284 775 59 6 c65 6 127 34 163
73 l24 25 37 -22 c20 -12 180 -109 357 -216z m14376 -4340 l-1248 -4031 -46 0
c-55 0 -138 -39 -174 -82 l-26 -31 -182 93 c-100 51 -228 117 -284 147 l-101
54 16 32 c11 21 17 56 17 102 0 83 -20 130 -78 187 l-39 38 1693 3764 c932
2070 1695 3763 1697 3761 1 -1 -559 -1816 -1245 -4034z m-12911 3455 l695
-420 -5 -45 c-2 -27 3 -65 12 -91 14 -42 14 -46 -2 -61 -52 -49 -4930 -4416
-4939 -4422 -7 -4 35 70 93 165 57 95 792 1305 1632 2688 l1527 2515 66 1 c73
1 139 26 179 69 13 14 30 24 36 23 7 -2 325 -192 706 -422z m20752 -393 l554
-662 -39 -41 c-38 -40 -69 -116 -69 -170 0 -43 26 -118 54 -155 34 -44 98 -82
154 -91 23 -3 42 -11 42 -16 0 -11 -691 -2736 -716 -2824 l-14 -50 -63 2 -62
2 -51 109 c-28 59 -180 386 -339 726 l-288 617 28 27 c47 48 69 101 69 174 0
103 -40 166 -147 234 -14 9 -6 142 88 1350 57 737 105 1356 107 1375 3 33 5
35 58 46 30 6 61 11 68 10 7 0 262 -299 566 -663z m-4245 157 c300 -220 548
-403 552 -407 4 -5 1 -34 -8 -65 -14 -49 -14 -66 -4 -112 23 -103 108 -185
200 -194 l49 -4 6 -87 c15 -206 107 -1979 104 -2009 -2 -26 -155 308 -740
1615 -405 906 -734 1651 -732 1655 3 4 11 8 17 8 7 0 257 -180 556 -400z
m5228 -510 l172 -351 -26 -49 c-65 -126 -6 -292 122 -346 31 -13 32 -16 38
-86 4 -40 10 -237 13 -436 l7 -364 -23 4 c-20 3 -41 52 -196 478 -96 261 -174
482 -174 491 0 9 7 33 15 52 18 43 19 115 3 168 -13 46 -68 113 -109 135 l-29
15 0 319 c0 176 4 320 8 320 4 0 85 -158 179 -350z m-19166 -767 l1459 -848 0
-40 c0 -45 31 -119 62 -152 l20 -22 -773 -864 -774 -865 -39 20 c-21 11 -64
21 -95 23 -51 3 -57 6 -67 32 -7 15 -301 815 -654 1777 -612 1669 -640 1749
-624 1767 9 10 19 19 22 19 2 0 661 -381 1463 -847z m-3974 -4351 c-2129
-5057 -2183 -5182 -2209 -5182 -23 0 -27 5 -32 38 -16 98 -736 5459 -736 5477
0 12 13 31 30 43 16 12 42 43 57 69 25 43 28 57 27 136 l0 89 2520 2258 c1386
1242 2522 2258 2523 2256 1 -1 -980 -2334 -2180 -5184z m3042 3358 l653 -1779
-45 -45 c-81 -82 -99 -189 -48 -291 l30 -58 -137 -153 c-4241 -4739 -5577
-6231 -5580 -6229 -2 1 4156 9881 4315 10253 l35 82 62 0 62 0 653 -1780z
m16617 -434 c784 -1702 846 -1839 828 -1849 -40 -21 -110 -103 -122 -143 -30
-100 0 -211 73 -272 l38 -31 -1248 -2366 c-686 -1301 -1250 -2364 -1252 -2361
-3 3 885 6141 903 6244 5 24 11 32 28 32 12 0 46 15 76 33 74 44 113 107 118
192 7 111 -38 194 -132 240 -47 23 -56 32 -60 59 -3 17 -28 477 -56 1021 -28
545 -52 1005 -53 1022 -2 18 0 30 4 25 4 -4 388 -834 855 -1846z m3509 992
l167 -458 -45 -43 c-100 -98 -100 -264 0 -359 30 -29 107 -67 136 -68 22 0 22
-30 2 -336 -55 -850 -163 -1611 -347 -2452 -28 -128 -53 -230 -56 -227 -3 2
-18 993 -34 2202 -29 2219 -29 2239 4 2205 3 -4 81 -213 173 -464z m-265
-1838 c11 -976 23 -1896 26 -2045 l5 -270 -48 -30 c-26 -16 -61 -49 -78 -73
-25 -37 -30 -55 -33 -118 -3 -56 0 -85 13 -113 l16 -37 -860 -1235 c-473 -678
-865 -1235 -870 -1237 -11 -4 -35 -103 553 2213 256 1006 470 1831 476 1833 5
2 33 15 62 30 139 71 177 242 83 374 -19 26 -35 51 -35 56 0 4 147 588 327
1297 l328 1290 7 -80 c4 -44 16 -879 28 -1855z m-15956 544 l1111 -646 0 -83
0 -83 -1653 -1156 c-1496 -1046 -1655 -1155 -1675 -1145 -24 14 -120 17 -158
7 l-26 -8 -297 808 c-163 445 -296 811 -296 813 0 3 21 27 48 55 72 75 91 165
53 263 l-18 49 777 869 777 868 90 0 c68 0 95 4 114 17 13 9 28 17 33 17 5 1
509 -290 1120 -645z m14425 -35 c73 -156 225 -481 337 -722 l203 -438 -33 -29
c-81 -72 -101 -226 -39 -313 16 -23 47 -55 70 -72 23 -16 42 -37 42 -47 2 -37
-292 -1235 -474 -1933 -173 -662 -466 -1730 -484 -1763 -4 -8 -11 157 -15 365
-11 639 -39 1276 -71 1632 -12 129 -119 976 -165 1300 l-9 64 37 37 c100 97
106 246 14 351 l-39 44 188 830 c103 457 195 862 204 902 16 69 17 72 48 76
18 2 37 3 42 2 6 -1 70 -129 144 -286z m-2586 -429 c-3 -36 -912 -6300 -919
-6332 -5 -24 -11 -28 -39 -28 -18 0 -55 -7 -83 -16 l-50 -17 -1145 588 -1145
587 10 29 c6 16 8 60 6 98 -3 54 -9 77 -31 110 -28 42 -28 43 -11 69 25 39
3234 4739 3311 4850 45 64 70 92 81 90 11 -3 16 -12 15 -28z m-10631 -469 c36
-27 46 -39 43 -55 -3 -12 -350 -1771 -771 -3911 -421 -2139 -769 -3894 -774
-3899 -5 -5 -12 -7 -16 -4 -5 6 -1899 5158 -1911 5199 -3 9 5 20 20 26 40 19
97 74 118 115 39 77 34 185 -13 251 l-20 28 23 17 c291 207 3245 2270 3249
2269 3 -1 26 -17 52 -36z m1969 -1472 l1664 -1461 6 -67 c3 -39 14 -84 26
-107 l20 -40 -270 -284 c-1294 -1364 -2630 -2706 -3481 -3498 -473 -441 -957
-855 -1169 -1001 l-44 -30 -22 23 c-18 19 -55 42 -99 62 -3 2 1524 7773 1534
7807 4 11 16 17 37 17 18 0 50 9 72 19 22 11 45 20 51 20 6 1 760 -656 1675
-1460z m-6320 893 l65 -4 301 -820 301 -819 -34 -50 c-20 -30 -35 -67 -39 -97
-3 -26 -7 -54 -8 -62 -2 -12 -1387 -984 -6247 -4382 -65 -46 -72 -48 -50 -21
14 17 1282 1435 2819 3152 2102 2348 2799 3120 2810 3115 9 -4 45 -9 82 -12z
m16911 -1022 c136 -1026 149 -1233 183 -2867 l5 -262 -42 -12 c-128 -34 -207
-165 -178 -294 6 -28 22 -66 35 -86 l24 -37 -3491 -3048 c-1920 -1677 -3500
-3055 -3511 -3063 -10 -7 48 69 130 170 120 147 3831 4728 3837 4736 1 1 24
-5 51 -13 162 -50 324 66 325 232 0 65 -15 109 -52 157 l-30 38 1233 2337
c678 1285 1255 2379 1282 2430 l49 93 42 -3 41 -3 67 -505z m-24014 320 c12
-16 42 -41 66 -55 40 -23 44 -29 35 -48 -5 -12 -301 -824 -658 -1805 -357
-981 -650 -1784 -652 -1786 -2 -2 -31 -6 -64 -9 l-60 -6 -840 1146 c-462 631
-907 1238 -988 1350 l-149 203 17 50 c9 28 15 72 14 101 l-3 52 1610 417 c885
230 1618 418 1630 419 12 1 29 -11 42 -29z m232 -101 c0 -14 729 -5424 736
-5466 5 -28 2 -33 -24 -47 -79 -41 -131 -127 -132 -215 0 -104 40 -177 126
-227 35 -21 60 -27 109 -28 l64 -1 682 -1400 c375 -770 686 -1409 692 -1420 6
-14 6 -17 -1 -10 -10 10 -3497 4768 -3515 4796 -8 12 -5 30 11 67 43 99 24
199 -50 276 -27 28 -48 51 -48 53 0 1 293 807 651 1790 358 984 656 1800 661
1816 10 26 38 38 38 16z m25883 -1136 c-387 -1316 -964 -2623 -1659 -3758
l-80 -130 -42 -3 -42 -3 0 594 0 593 40 18 c51 22 98 69 121 121 23 50 25 150
3 204 l-15 39 851 1221 c468 671 853 1221 855 1221 2 0 -12 -53 -32 -117z
m-28608 -1537 c465 -851 845 -1550 845 -1554 0 -4 -12 -18 -27 -32 -71 -67
-88 -197 -37 -291 52 -94 136 -136 254 -126 l65 6 899 -1525 c537 -912 896
-1530 892 -1539 -3 -8 -10 -15 -15 -15 -12 0 -310 210 -581 410 -391 288 -780
601 -1100 886 -155 138 -551 529 -613 605 l-38 47 23 43 c31 60 32 166 1 225
-39 73 -126 134 -192 134 -27 0 -31 4 -45 53 -8 28 -276 986 -597 2127 -320
1141 -584 2082 -587 2090 -3 8 -2 12 1 9 4 -3 387 -702 852 -1553z m10225
1506 c0 -5 15 -23 33 -42 36 -38 99 -69 138 -70 20 0 30 -7 38 -27 6 -16 438
-1193 960 -2616 l949 -2588 -48 -48 c-32 -32 -53 -64 -61 -92 -7 -24 -13 -45
-13 -46 -1 0 -1893 213 -4206 476 l-4205 477 -12 44 c-11 43 -10 46 15 67 55
46 6387 4472 6400 4472 6 1 12 -3 12 -7z m-9986 -1339 c460 -628 836 -1145
836 -1148 0 -4 -12 -22 -26 -40 -28 -37 -54 -112 -54 -155 0 -59 31 -131 75
-176 l44 -43 -21 -58 -21 -58 -71 1 -71 1 -221 404 c-944 1727 -1333 2442
-1321 2429 8 -8 391 -529 851 -1157z m18340 321 c4 -85 43 -157 113 -205 21
-15 20 -17 -1100 -3637 l-1121 -3623 -31 7 c-55 13 -131 6 -174 -15 l-41 -21
-1772 1391 c-975 765 -1775 1393 -1777 1395 -2 2 7 24 19 50 17 34 23 63 22
115 l0 68 151 115 c714 538 2039 1806 3808 3641 312 325 790 826 979 1028 l45
48 37 -15 c51 -22 153 -20 203 3 l40 18 298 -152 298 -152 3 -59z m1507 -716
l625 -321 11 -67 c7 -47 20 -81 41 -113 l32 -45 -2106 -3083 c-1158 -1696
-2107 -3085 -2109 -3088 -2 -2 6 30 19 70 1122 3633 2203 7112 2211 7114 5 2
31 6 57 10 30 4 66 19 95 39 l48 33 225 -114 c124 -63 506 -259 851 -435z
m2191 -1124 c618 -317 1126 -579 1131 -583 4 -4 0 -25 -10 -47 -11 -25 -17
-66 -18 -116 l0 -76 -3250 -2342 c-1787 -1288 -3306 -2383 -3374 -2433 -106
-77 -122 -85 -104 -57 12 18 965 1416 2120 3107 l2098 3073 62 -6 c70 -7 134
6 173 36 14 11 30 20 37 20 6 0 517 -259 1135 -576z m4418 -435 l0 -611 -31
-36 c-61 -69 -79 -151 -54 -238 l16 -56 -37 -57 c-248 -377 -897 -1240 -939
-1249 -30 -7 -23 24 41 170 172 396 408 1023 607 1613 81 242 296 910 323
1007 8 26 44 68 60 68 12 0 14 -88 14 -611z m-242 469 c-14 -18 -863 -1236
-1888 -2706 -1666 -2390 -1865 -2673 -1884 -2667 -12 4 -57 9 -101 12 -77 4
-82 3 -135 -29 -36 -22 -64 -49 -85 -82 -27 -44 -30 -58 -31 -135 l-1 -85
-2979 -1147 c-1638 -632 -2979 -1147 -2980 -1146 -2 2 2380 1396 2538 1486
l59 33 27 -27 c63 -63 157 -87 244 -61 70 20 120 64 154 132 23 47 26 63 22
122 -3 37 -13 82 -22 101 -18 33 -17 34 6 56 48 47 7070 6175 7075 6175 3 0
-6 -15 -19 -32z m-23302 -2490 c972 -1327 1803 -2461 1847 -2520 43 -60 77
-113 75 -118 -8 -26 -1046 602 -1660 1003 l-116 76 20 53 c51 133 -22 284
-159 329 -30 10 -99 9 -167 -3 -15 -2 -181 273 -918 1521 l-899 1524 25 36
c36 52 46 85 46 152 0 70 -15 112 -60 162 l-32 37 23 65 24 65 45 1 c25 0 61
6 80 13 19 8 40 14 47 15 6 0 807 -1085 1779 -2411z m23195 1996 c-255 -790
-504 -1467 -733 -1999 l-74 -170 -57 -7 c-199 -25 -299 -229 -192 -388 l34
-51 -37 -42 c-576 -656 -1340 -1379 -2047 -1938 -149 -118 -454 -349 -461
-349 -3 0 21 38 53 84 1615 2319 3608 5174 3611 5172 1 -2 -42 -142 -97 -312z
m-2948 -476 c-11 -13 -947 -1166 -2078 -2563 l-2058 -2540 -68 3 c-113 6 -186
-30 -242 -120 -18 -28 -37 -48 -48 -48 -10 0 -525 76 -1144 170 -620 93 -1128
170 -1130 170 -1 0 -5 12 -8 26 -4 23 5 33 82 90 192 141 6706 4834 6710 4834
3 0 -5 -10 -16 -22z m-15369 -1353 c2305 -261 4194 -479 4200 -485 6 -6 1 -12
-15 -18 -13 -5 -51 -21 -85 -35 -393 -166 -1733 -649 -3229 -1164 -1199 -412
-3365 -1143 -3389 -1143 -6 0 -23 17 -38 38 -14 21 -50 51 -80 67 -46 26 -63
29 -128 29 l-75 -1 -695 1426 c-382 784 -719 1477 -749 1538 l-55 113 33 32
c18 17 39 44 47 60 12 22 19 27 42 22 15 -2 1912 -218 4216 -479z m-6699 -380
c388 -333 911 -732 1459 -1112 46 -32 46 -33 46 -90 0 -142 101 -244 245 -249
l70 -3 306 -518 c168 -285 304 -520 303 -522 -4 -5 -413 325 -594 479 -765
654 -1536 1451 -2131 2205 -225 285 -222 277 -34 103 94 -86 242 -218 330
-293z m10979 -230 c72 -55 177 -72 253 -40 l35 15 62 -48 c33 -27 828 -650
1766 -1386 938 -736 1711 -1344 1719 -1351 11 -11 11 -20 -4 -59 -16 -41 -21
-46 -49 -46 -57 -1 -10470 570 -10516 576 -50 7 -145 -26 1495 527 2412 813
4382 1508 5035 1776 80 33 151 60 158 60 7 1 28 -10 46 -24z m-8649 -1460
c372 -238 827 -515 1230 -748 l130 -75 6 -69 c6 -83 28 -131 81 -179 54 -49
95 -64 171 -64 49 0 75 6 112 25 46 25 48 25 74 9 47 -31 1616 -1116 1625
-1125 5 -5 -85 30 -200 76 -115 47 -771 314 -1459 593 l-1250 508 -6 55 c-15
140 -124 235 -262 227 l-62 -3 -290 492 c-159 271 -298 506 -308 523 -17 28
-7 23 100 -46 65 -42 204 -132 308 -199z m7265 -1265 c2808 -154 5114 -281
5125 -282 11 -2 -567 -121 -1285 -266 l-1305 -262 -1912 0 -1913 0 -17 28
c-56 91 -119 127 -223 127 -81 0 -113 -12 -172 -64 l-33 -28 -1725 506 c-949
279 -1741 512 -1760 518 -31 10 -26 11 40 7 41 -3 2372 -131 5180 -284z
m-3550 -310 c976 -286 1776 -523 1778 -525 9 -9 -28 -16 -743 -138 l-720 -123
-30 50 c-43 72 -107 109 -196 114 -59 4 -77 0 -124 -23 -31 -15 -60 -23 -67
-19 -37 22 -1705 1179 -1718 1191 -13 12 -11 12 15 4 17 -6 829 -245 1805
-531z m-1688 -186 c766 -311 1420 -577 1454 -590 l61 -25 -1 -57 c0 -74 18
-125 62 -174 98 -109 253 -114 359 -13 26 25 49 45 52 45 15 0 3070 -1285
3062 -1288 -27 -9 -712 131 -1086 223 -1603 391 -3159 1042 -4550 1903 -264
164 -832 542 -813 542 3 0 633 -255 1400 -566z m16498 302 c0 -2 -80 -56 -177
-119 -1663 -1074 -3527 -1827 -5488 -2216 -239 -47 -686 -124 -691 -118 -2 2
13 11 33 21 46 20 6305 2434 6316 2435 4 1 7 -1 7 -3z m-4400 -312 c613 -92
1119 -171 1124 -175 5 -5 7 -11 4 -14 -2 -3 -765 -322 -1693 -709 l-1688 -704
-31 51 c-20 34 -48 62 -80 82 -44 27 -58 30 -131 30 -73 0 -87 -3 -131 -30
-73 -46 -108 -109 -112 -205 l-4 -76 -1776 -192 c-978 -106 -1786 -195 -1797
-197 -16 -3 -17 -2 -5 6 8 6 1076 507 2373 1114 l2359 1103 56 -30 c51 -27 64
-29 133 -26 90 4 141 31 192 104 28 40 35 45 62 40 16 -3 532 -80 1145 -172z
m-1750 112 c-14 -7 -1061 -498 -2327 -1091 l-2302 -1077 -26 30 c-68 81 -197
105 -297 54 l-56 -28 -705 740 -705 739 14 40 c8 22 14 50 14 64 l0 24 1918
-1 1917 -1 1280 260 c704 142 1285 259 1290 260 6 0 -1 -6 -15 -13z m-6876
-580 c4 -18 20 -52 36 -74 68 -94 198 -127 304 -79 l57 26 108 -112 c347 -360
1231 -1290 1228 -1293 -4 -4 -3180 1286 -3191 1297 -5 5 -6 12 -3 16 7 6 1396
250 1438 252 11 1 19 -10 23 -33z m9311 -14 c-32 -28 -2670 -1560 -2721 -1580
l-64 -25 -52 29 c-45 24 -64 29 -124 29 -58 -1 -78 -6 -116 -28 -55 -32 -105
-89 -114 -130 l-6 -30 -991 6 c-545 4 -1328 7 -1741 8 -413 0 -746 3 -740 5 6
3 749 85 1650 183 l1639 179 37 -34 c72 -64 190 -79 279 -33 49 25 107 94 120
144 6 22 14 46 17 53 5 10 2902 1226 2932 1231 2 1 0 -3 -5 -7z m-4505 -1821
l195 -6 -290 -9 c-284 -9 -1018 -1 -1245 13 -142 9 1067 11 1340 2z"/>
</g>
</svg>
