{
  "accessors": [
    {
      "bufferView": 1,
      "componentType": 5126,
      "count": 16,
      "max": [
        0.31956860423088074,
        0.35999998450279236,
        6.25
      ],
      "min": [
        -0.31956303119659424,
        -0.36000001430511475,
        -3.7499997615814209
      ],
      "type": "VEC3"
    },
    {
      "bufferView": 1,
      "byteOffset": 192,
      "componentType": 5126,
      "count": 16,
      "max": [
        0.99810111522674561,
        0.99995481967926025,
        0.0078129246830940247
      ],
      "min": [
        -0.99810111522674561,
        -0.99995481967926025,
        -0.10935164988040924
      ],
      "type": "VEC3"
    },
    {
      "bufferView": 0,
      "componentType": 5125,
      "count": 24,
      "max": [
        15
      ],
      "min": [
        0
      ],
      "type": "SCALAR"
    },
    {
      "bufferView": 1,
      "byteOffset": 384,
      "componentType": 5126,
      "count": 20,
      "max": [
        0.31956377625465393,
        0.35999998450279236,
        -3.7499997615814209
      ],
      "min": [
        -0.31956306099891663,
        -0.35999998450279236,
        -4.7334709167480469
      ],
      "type": "VEC3"
    },
    {
      "bufferView": 1,
      "byteOffset": 624,
      "componentType": 5126,
      "count": 20,
      "max": [
        0.99202865362167358,
        0.9939759373664856,
        -0.1072433665394783
      ],
      "min": [
        -0.99202865362167358,
        -0.9939759373664856,
        -0.23029503226280212
      ],
      "type": "VEC3"
    },
    {
      "bufferView": 0,
      "byteOffset": 96,
      "componentType": 5125,
      "count": 66,
      "max": [
        19
      ],
      "min": [
        0
      ],
      "type": "SCALAR"
    },
    {
      "bufferView": 1,
      "byteOffset": 864,
      "componentType": 5126,
      "count": 24,
      "max": [
        0.31956863403320312,
        0.35999998450279236,
        6.25
      ],
      "min": [
        -0.31956306099891663,
        -0.36000001430511475,
        -3.7499997615814209
      ],
      "type": "VEC3"
    },
    {
      "bufferView": 1,
      "byteOffset": 1152,
      "componentType": 5126,
      "count": 24,
      "max": [
        0.99810111522674561,
        0.99995481967926025,
        0.0078129246830940247
      ],
      "min": [
        -0.99810111522674561,
        -0.99995481967926025,
        -0.11041828244924545
      ],
      "type": "VEC3"
    },
    {
      "bufferView": 0,
      "byteOffset": 360,
      "componentType": 5125,
      "count": 48,
      "max": [
        23
      ],
      "min": [
        0
      ],
      "type": "SCALAR"
    },
    {
      "bufferView": 1,
      "byteOffset": 1440,
      "componentType": 5126,
      "count": 20,
      "max": [
        0.31956863403320312,
        0.35999995470046997,
        6.5
      ],
      "min": [
        -0.31955820322036743,
        -0.36000001430511475,
        6.25
      ],
      "type": "VEC3"
    },
    {
      "bufferView": 1,
      "byteOffset": 1680,
      "componentType": 5126,
      "count": 20,
      "max": [
        0.99810111522674561,
        0.99998831748962402,
        0.017518213018774986
      ],
      "min": [
        -0.99810111522674561,
        -0.99998831748962402,
        0.0046999170444905758
      ],
      "type": "VEC3"
    },
    {
      "bufferView": 0,
      "byteOffset": 552,
      "componentType": 5125,
      "count": 66,
      "max": [
        19
      ],
      "min": [
        0
      ],
      "type": "SCALAR"
    },
    {
      "bufferView": 1,
      "byteOffset": 1920,
      "componentType": 5126,
      "count": 12,
      "max": [
        0.11729857325553894,
        0.13544441759586334,
        -4.7334709167480469
      ],
      "min": [
        -0.11729808151721954,
        -0.13544443249702454,
        -5.2069940567016602
      ],
      "type": "VEC3"
    },
    {
      "bufferView": 1,
      "byteOffset": 2064,
      "componentType": 5126,
      "count": 12,
      "max": [
        0.84370660781860352,
        0.97455233335494995,
        -0.22415955364704132
      ],
      "min": [
        -0.84370660781860352,
        -0.97455233335494995,
        -0.69291478395462036
      ],
      "type": "VEC3"
    },
    {
      "bufferView": 0,
      "byteOffset": 816,
      "componentType": 5125,
      "count": 48,
      "max": [
        11
      ],
      "min": [
        0
      ],
      "type": "SCALAR"
    },
    {
      "bufferView": 1,
      "byteOffset": 2208,
      "componentType": 5126,
      "count": 42,
      "max": [
        0.31177431344985962,
        0.35999995470046997,
        6.8345255851745605
      ],
      "min": [
        -0.31176415085792542,
        -0.36000001430511475,
        6.5
      ],
      "type": "VEC3"
    },
    {
      "bufferView": 1,
      "byteOffset": 2712,
      "componentType": 5126,
      "count": 42,
      "max": [
        0.86599087715148926,
        0.99998831748962402,
        0.99713641405105591
      ],
      "min": [
        -0.86599105596542358,
        -0.99998831748962402,
        0.0046999389305710793
      ],
      "type": "VEC3"
    },
    {
      "bufferView": 0,
      "byteOffset": 1008,
      "componentType": 5125,
      "count": 228,
      "max": [
        41
      ],
      "min": [
        0
      ],
      "type": "SCALAR"
    }
  ],
  "asset": {
    "extras": {
      "author": "Kyle Carpio (https://sketchfab.com/kyle_carpio)",
      "license": "CC-BY-ND-4.0 (http://creativecommons.org/licenses/by-nd/4.0/)",
      "source": "https://sketchfab.com/3d-models/writingdrawing-pencil-92c3529e004b4211b7fbc3efc4461803",
      "title": "Writing/Drawing Pencil"
    },
    "generator": "Sketchfab-5.81.0",
    "version": "2.0"
  },
  "bufferViews": [
    {
      "buffer": 0,
      "byteLength": 1920,
      "byteOffset": 0,
      "name": "floatBufferViews",
      "target": 34963
    },
    {
      "buffer": 0,
      "byteLength": 3216,
      "byteOffset": 1920,
      "byteStride": 12,
      "name": "floatBufferViews",
      "target": 34962
    }
  ],
  "buffers": [
    {
      "byteLength": 5136,
      "uri": "scene.bin"
    }
  ],
  "materials": [
    {
      "doubleSided": true,
      "emissiveFactor": [
        0,
        0,
        0
      ],
      "name": "Yellow",
      "pbrMetallicRoughness": {
        "baseColorFactor": [
          0.80000000000000004,
          0.80000000000000004,
          0,
          1
        ],
        "metallicFactor": 0,
        "roughnessFactor": 0.59999999999999998
      }
    },
    {
      "doubleSided": true,
      "emissiveFactor": [
        0,
        0,
        0
      ],
      "name": "Wood",
      "pbrMetallicRoughness": {
        "baseColorFactor": [
          0.45735999999999999,
          0.22214320000000001,
          0.10309200000000002,
          1
        ],
        "metallicFactor": 0,
        "roughnessFactor": 0.59999999999999998
      }
    },
    {
      "doubleSided": true,
      "emissiveFactor": [
        0,
        0,
        0
      ],
      "name": "Black",
      "pbrMetallicRoughness": {
        "baseColorFactor": [
          0,
          0,
          0,
          1
        ],
        "metallicFactor": 0,
        "roughnessFactor": 0.59999999999999998
      }
    },
    {
      "doubleSided": true,
      "emissiveFactor": [
        0,
        0,
        0
      ],
      "name": "White",
      "pbrMetallicRoughness": {
        "baseColorFactor": [
          0.80000000000000004,
          0.80000000000000004,
          0.80000000000000004,
          1
        ],
        "metallicFactor": 0,
        "roughnessFactor": 0.59999999999999998
      }
    },
    {
      "doubleSided": true,
      "emissiveFactor": [
        0,
        0,
        0
      ],
      "name": "Grey",
      "pbrMetallicRoughness": {
        "baseColorFactor": [
          0.080000000000000016,
          0.080000000000000016,
          0.080000000000000016,
          1
        ],
        "metallicFactor": 0,
        "roughnessFactor": 0.59999999999999998
      }
    },
    {
      "doubleSided": true,
      "emissiveFactor": [
        0,
        0,
        0
      ],
      "name": "material",
      "pbrMetallicRoughness": {
        "baseColorFactor": [
          0.80000000000000004,
          0.00016659520000000003,
          0,
          1
        ],
        "metallicFactor": 0,
        "roughnessFactor": 0.59999999999999998
      }
    }
  ],
  "meshes": [
    {
      "name": "Pencil_Yellow_0",
      "primitives": [
        {
          "attributes": {
            "NORMAL": 1,
            "POSITION": 0
          },
          "indices": 2,
          "material": 0,
          "mode": 4
        }
      ]
    },
    {
      "name": "Pencil_Wood_0",
      "primitives": [
        {
          "attributes": {
            "NORMAL": 4,
            "POSITION": 3
          },
          "indices": 5,
          "material": 1,
          "mode": 4
        }
      ]
    },
    {
      "name": "Pencil_Black_0",
      "primitives": [
        {
          "attributes": {
            "NORMAL": 7,
            "POSITION": 6
          },
          "indices": 8,
          "material": 2,
          "mode": 4
        }
      ]
    },
    {
      "name": "Pencil_White_0",
      "primitives": [
        {
          "attributes": {
            "NORMAL": 10,
            "POSITION": 9
          },
          "indices": 11,
          "material": 3,
          "mode": 4
        }
      ]
    },
    {
      "name": "Pencil_Grey_0",
      "primitives": [
        {
          "attributes": {
            "NORMAL": 13,
            "POSITION": 12
          },
          "indices": 14,
          "material": 4,
          "mode": 4
        }
      ]
    },
    {
      "name": "Pencil_Red_0",
      "primitives": [
        {
          "attributes": {
            "NORMAL": 16,
            "POSITION": 15
          },
          "indices": 17,
          "material": 5,
          "mode": 4
        }
      ]
    }
  ],
  "nodes": [
    {
      "children": [
        1
      ],
      "name": "RootNode (gltf orientation matrix)",
      "rotation": [
        -0.70710678118654746,
        -0,
        -0,
        0.70710678118654757
      ]
    },
    {
      "children": [
        2
      ],
      "matrix": [
        -1,
        0,
        -2.832769343193999e-16,
        0,
        0,
        1,
        0,
        0,
        2.832769343193999e-16,
        0,
        -1,
        0,
        0.002586837625131011,
        -4.9737991503207013e-14,
        -1202.75146484375,
        1
      ],
      "name": "RootNode (model correction matrix)"
    },
    {
      "children": [
        3
      ],
      "matrix": [
        1,
        0,
        0,
        0,
        0,
        -1,
        0,
        0,
        0,
        0,
        -1,
        0,
        0,
        0,
        0,
        1
      ],
      "name": "8547bb320bd042b3bcc6746673f9def7.fbx"
    },
    {
      "children": [
        4
      ],
      "name": "RootNode"
    },
    {
      "children": [
        5,
        6,
        7,
        8,
        9,
        10
      ],
      "matrix": [
        -99.999938964843395,
        -8.7422726445934664e-06,
        0,
        0,
        8.7422779804564926e-06,
        -99.999999999999645,
        0,
        0,
        0,
        0,
        100,
        0,
        0,
        0,
        520,
        1
      ],
      "name": "Pencil"
    },
    {
      "mesh": 0,
      "name": "Pencil_Yellow_0"
    },
    {
      "mesh": 1,
      "name": "Pencil_Wood_0"
    },
    {
      "mesh": 2,
      "name": "Pencil_Black_0"
    },
    {
      "mesh": 3,
      "name": "Pencil_White_0"
    },
    {
      "mesh": 4,
      "name": "Pencil_Grey_0"
    },
    {
      "mesh": 5,
      "name": "Pencil_Red_0"
    }
  ],
  "scene": 0,
  "scenes": [
    {
      "name": "OSG_Scene",
      "nodes": [
        0
      ]
    }
  ]
}

